<svg width="16" height="20" viewBox="0 0 16 20" fill="none" xmlns="http://www.w3.org/2000/svg">
<path fill-rule="evenodd" clip-rule="evenodd" d="M15.1109 7.07679C15.1109 6.89809 15.0359 6.72648 14.9025 6.60004L8.50254 0.531075C8.3692 0.404638 8.18823 0.333496 7.99978 0.333496H3.02201C2.45632 0.333496 1.91374 0.546584 1.51374 0.925895C1.11374 1.30554 0.888672 1.82006 0.888672 2.35648C0.888672 5.72813 0.888672 14.4944 0.888672 17.8661C0.888672 18.4025 1.11374 18.917 1.51374 19.2967C1.91374 19.676 2.45632 19.8891 3.02201 19.8891H12.9776C14.1559 19.8891 15.1109 18.9834 15.1109 17.8661C15.1109 14.7038 15.1109 7.07679 15.1109 7.07679ZM7.99978 1.96133V6.40246C7.99978 6.58116 8.0748 6.75278 8.20814 6.87921C8.34147 7.00565 8.52245 7.07679 8.71089 7.07679H13.3943L7.99978 1.96133Z" fill="white"/>
</svg>
