<svg width="16" height="20" viewBox="0 0 16 20" fill="none" xmlns="http://www.w3.org/2000/svg">
<path d="M1.08731 3.27467L3.88909 0.51282C4.01766 0.386133 4.21097 0.348243 4.37893 0.416812C4.54688 0.48538 4.6564 0.64691 4.65647 0.826104V3.58795C4.65757 3.70619 4.6107 3.81997 4.52627 3.90396C4.44184 3.98796 4.32686 4.03521 4.20691 4.03521H1.41348C1.22831 4.04035 1.05889 3.933 0.98676 3.76481C0.914625 3.59661 0.954543 3.40202 1.08731 3.27467ZM15.1109 1.21359V19.0048C15.1097 19.4935 14.7075 19.8891 14.2118 19.8891H1.78775C1.29202 19.8891 0.889825 19.4935 0.888672 19.0048V5.60781C0.889816 5.36355 1.09041 5.16581 1.33821 5.16468H4.90736C5.14562 5.16468 5.37409 5.07124 5.54237 4.90498C5.71064 4.73871 5.8049 4.51328 5.80435 4.27842V0.774577C5.80435 0.65724 5.85178 0.544738 5.93614 0.461962C6.02051 0.379185 6.13486 0.332957 6.25389 0.333501H14.2118C14.4504 0.332957 14.6794 0.426155 14.8482 0.592481C15.0169 0.758807 15.1114 0.984551 15.1109 1.21977V1.21359ZM4.26336 8.6273H11.7362V7.56584H4.26336V8.6273ZM4.26336 11.4963H11.7362V10.4349H4.26336V11.4963ZM7.20942 13.3101H4.26336V14.3736H7.20942V13.3101ZM12.6875 15.9895C12.6875 15.5896 13.0158 15.0991 12.8255 14.7776C12.6353 14.456 12.0289 14.4808 11.6902 14.287C11.3515 14.0933 11.1006 13.5636 10.6949 13.5636C10.2893 13.5636 10.0258 14.0995 9.69758 14.287C9.36931 14.4746 8.75877 14.4437 8.56223 14.7776C8.36568 15.1115 8.70023 15.5896 8.70023 15.9895C8.70023 16.3893 8.37405 16.8799 8.56223 17.2035C8.75041 17.5271 9.35886 17.5003 9.69758 17.6919C10.0363 17.8836 10.2893 18.4154 10.6949 18.4154C11.1006 18.4154 11.364 17.8795 11.6902 17.6919C12.0164 17.5044 12.629 17.5353 12.8255 17.2035C13.0221 16.8716 12.6875 16.4017 12.6875 15.9895Z" fill="white"/>
</svg>
