<svg width="22" height="22" viewBox="0 0 22 22" fill="none" xmlns="http://www.w3.org/2000/svg">
<path fill-rule="evenodd" clip-rule="evenodd" d="M10.9997 0.333496C5.11246 0.333496 0.333008 5.11295 0.333008 11.0002C0.333008 16.8874 5.11246 21.6668 10.9997 21.6668C16.8869 21.6668 21.6663 16.8874 21.6663 11.0002C21.6663 5.11295 16.8869 0.333496 10.9997 0.333496ZM11.7898 10.21C13.2302 10.21 16.9256 10.21 16.9256 10.21C17.3617 10.21 17.7157 10.564 17.7157 11.0002C17.7157 11.4363 17.3617 11.7903 16.9256 11.7903C16.9256 11.7903 13.2302 11.7903 11.7898 11.7903C11.3706 11.7903 10.9689 11.624 10.6726 11.3273C10.3759 11.031 10.2095 10.6292 10.2095 10.21C10.2095 8.76964 10.2095 5.07424 10.2095 5.07424C10.2095 4.63809 10.5635 4.28411 10.9997 4.28411C11.4358 4.28411 11.7898 4.63809 11.7898 5.07424V10.21Z" fill="white"/>
</svg>
