<svg width="16" height="20" viewBox="0 0 16 20" fill="none" xmlns="http://www.w3.org/2000/svg">
<path d="M15.1109 18.6594V1.56318C15.115 0.889275 14.5664 0.339204 13.8846 0.333496H5.81162C5.7369 0.333496 5.66471 0.36022 5.60842 0.408767L1.62199 3.84368L0.995375 4.38039C0.928475 4.4404 0.889838 4.5252 0.888695 4.61448V18.6594C0.884578 19.3333 1.43313 19.8833 2.11501 19.8891H13.8846C14.5664 19.8833 15.115 19.3333 15.1109 18.6594ZM2.0267 4.30572L2.02815 4.30448L5.52637 1.3082V3.80874C5.52637 4.22262 5.3511 4.30572 5.06826 4.30572H2.0267ZM6.14472 17.1391C6.14433 17.4764 5.86771 17.7498 5.52637 17.7502H3.36213C3.02079 17.7498 2.74417 17.4764 2.74378 17.1391V15.0002C2.74417 14.6628 3.02079 14.3894 3.36213 14.3891H5.52637C5.86771 14.3894 6.14433 14.6628 6.14472 15.0002V17.1391ZM6.14472 13.1668C6.14433 13.5042 5.86771 13.7776 5.52637 13.7779H3.36213C3.02079 13.7776 2.74417 13.5042 2.74378 13.1668V11.0279C2.74417 10.6906 3.02079 10.4172 3.36213 10.4168H5.52637C5.86771 10.4172 6.14433 10.6906 6.14472 11.0279V13.1668ZM6.14472 9.19461C6.14433 9.53195 5.86771 9.80533 5.52637 9.80572H3.36213C3.02079 9.80533 2.74417 9.53195 2.74378 9.19461V7.05572C2.74417 6.71837 3.02079 6.44499 3.36213 6.44461H5.52637C5.86771 6.44499 6.14433 6.71837 6.14472 7.05572V9.19461ZM10.0094 16.9863H7.69061C7.51985 16.9863 7.38143 16.8495 7.38143 16.6807C7.38143 16.512 7.51985 16.3752 7.69061 16.3752H10.0094C10.1802 16.3752 10.3186 16.512 10.3186 16.6807C10.3186 16.8495 10.1802 16.9863 10.0094 16.9863ZM12.9466 15.7641H7.69061C7.51985 15.7641 7.38143 15.6272 7.38143 15.4585C7.38143 15.2897 7.51985 15.1529 7.69061 15.1529H12.9466C13.1174 15.1529 13.2558 15.2897 13.2558 15.4585C13.2558 15.6272 13.1174 15.7641 12.9466 15.7641ZM12.9466 13.0141H7.69061C7.51985 13.0141 7.38143 12.8772 7.38143 12.7085C7.38143 12.5397 7.51985 12.4029 7.69061 12.4029H12.9466C13.1174 12.4029 13.2558 12.5397 13.2558 12.7085C13.2558 12.8772 13.1174 13.0141 12.9466 13.0141ZM12.9466 11.7918H7.69061C7.51985 11.7918 7.38143 11.655 7.38143 11.4863C7.38143 11.3175 7.51985 11.1807 7.69061 11.1807H12.9466C13.1174 11.1807 13.2558 11.3175 13.2558 11.4863C13.2558 11.655 13.1174 11.7918 12.9466 11.7918ZM7.38143 8.73627C7.38143 8.56752 7.51986 8.43072 7.69061 8.43072H10.0094C10.1802 8.43072 10.3186 8.56752 10.3186 8.73627C10.3186 8.90503 10.1802 9.04183 10.0094 9.04183H7.69061C7.51986 9.04182 7.38143 8.90502 7.38143 8.73627ZM12.9466 7.81961H7.69061C7.51985 7.81961 7.38143 7.68281 7.38143 7.51405C7.38143 7.3453 7.51985 7.2085 7.69061 7.2085H12.9466C13.1174 7.2085 13.2558 7.3453 13.2558 7.51405C13.2558 7.68281 13.1174 7.81961 12.9466 7.81961Z" fill="white"/>
</svg>
