<svg width="16" height="20" viewBox="0 0 16 20" fill="none" xmlns="http://www.w3.org/2000/svg">
<path fill-rule="evenodd" clip-rule="evenodd" d="M4.76746 7.07679V3.70514C4.76746 1.84298 6.21457 0.333496 7.99978 0.333496C9.785 0.333496 11.2321 1.84298 11.2321 3.70514C11.2321 3.70514 11.2321 4.37947 10.5856 4.37947C9.93918 4.37947 9.93918 3.70514 9.93918 3.70514C9.93918 2.58778 9.07097 1.68216 7.99978 1.68216C6.92859 1.68216 6.06039 2.58778 6.06039 3.70514V7.07679H13.1715C13.6858 7.07679 14.179 7.28988 14.543 7.66919C14.9066 8.04884 15.1109 8.56335 15.1109 9.09978V15.1687C15.1109 16.4206 14.6341 17.6213 13.7853 18.5063C12.9368 19.3917 11.7858 19.8891 10.5856 19.8891H5.41392C4.21376 19.8891 3.06273 19.3917 2.21425 18.5063C1.36544 17.6213 0.888672 16.4206 0.888672 15.1687V9.09978C0.888672 8.56335 1.09295 8.04884 1.45659 7.66919C1.82055 7.28988 2.3138 7.07679 2.82807 7.07679H4.76746ZM7.35332 14.3791C6.60051 14.1013 6.06039 13.3514 6.06039 12.4714C6.06039 11.3551 6.92956 10.4484 7.99978 10.4484C9.07 10.4484 9.93918 11.3551 9.93918 12.4714C9.93918 13.3514 9.39906 14.1013 8.64625 14.3791V15.8431C8.64625 16.2153 8.35663 16.5174 7.99978 16.5174C7.64293 16.5174 7.35332 16.2153 7.35332 15.8431V14.3791Z" fill="white"/>
</svg>
