<svg width="30" height="33" viewBox="0 0 30 33" fill="none" xmlns="http://www.w3.org/2000/svg">
<g id="icn_categories suggestion_photography">
<g id="BG">
<path id="Path" d="M5.95035 29.6055C12.4042 29.6055 16.8361 33 19.9459 33C23.0557 33 29.5869 31.1848 29.5869 16.6587C29.5869 2.13255 20.8005 0 17.38 0C1.36261 0 -5.47934 29.6055 5.95035 29.6055Z" fill="#EFEFEF"/>
</g>
<g id="Color">
<path id="Path_2" d="M25.4259 12.474V22.4215C25.4259 23.4683 24.5909 24.3162 23.5599 24.3162H6.29869C5.26768 24.3162 4.43262 23.4683 4.43262 22.4215V12.474C4.43262 11.4272 5.26768 10.5793 6.29869 10.5793H13.5297L14.4133 8.78492C14.7296 8.1426 15.3753 7.73712 16.0825 7.73712H20.074C20.7813 7.73712 21.4269 8.1426 21.7432 8.78492L22.6268 10.5793H23.5599C24.5909 10.5793 25.4259 11.4272 25.4259 12.474Z" fill="#F3F3F1"/>
<ellipse id="Oval" cx="18.6607" cy="17.4478" rx="3.9654" ry="4.02635" fill="#FCBE4B"/>
<g id="Group">
<path id="Path_3" d="M16.5122 8.78492C16.8285 8.1426 17.4742 7.73712 18.1814 7.73712H16.0821C15.3748 7.73712 14.7292 8.1426 14.4129 8.78492L13.5293 10.5793H15.6286L16.5122 8.78492Z" fill="#D5DBE1"/>
<path id="Path_4" d="M6.53195 22.4215V12.474C6.53195 11.4272 7.36701 10.5793 8.39802 10.5793H6.29869C5.26768 10.5793 4.43262 11.4272 4.43262 12.474V22.4215C4.43262 23.4684 5.26768 24.3163 6.29869 24.3163H8.39802C7.36701 24.3163 6.53195 23.4684 6.53195 22.4215Z" fill="#D5DBE1"/>
</g>
<path id="Path_5" d="M16.7946 17.4478C16.7946 15.5957 18.0337 14.0515 19.7104 13.5825C19.3736 13.4887 19.0265 13.4214 18.6607 13.4214C16.4709 13.4214 14.6953 15.2243 14.6953 17.4478C14.6953 19.6713 16.4709 21.4742 18.6607 21.4742C19.0265 21.4742 19.3736 21.4078 19.7104 21.3131C18.0337 20.8442 16.7946 19.2999 16.7946 17.4478Z" fill="#E1960A"/>
<g id="Group_2">
<path id="Path_6" d="M4.63815 3.62477L5.95746 2.28518L6.61711 2.95498L5.2978 4.29457L4.63815 3.62477Z" fill="#A4AFC1"/>
<path id="Path_7" d="M0.8442 7.47603L2.16351 6.13644L2.82317 6.80623L1.50386 8.14582L0.8442 7.47603Z" fill="#A4AFC1"/>
<path id="Path_8" d="M0.8442 2.78667L1.50386 2.11687L2.82317 3.45646L2.16351 4.12626L0.8442 2.78667Z" fill="#A4AFC1"/>
</g>
<path id="Shape" fill-rule="evenodd" clip-rule="evenodd" d="M24.7251 4.18449C24.7251 4.96798 25.353 5.60556 26.1247 5.60556C26.8963 5.60556 27.5242 4.96798 27.5242 4.18449C27.5242 3.40101 26.8963 2.76343 26.1247 2.76343C25.353 2.76343 24.7251 3.40101 24.7251 4.18449ZM25.6581 4.18449C25.6581 3.92302 25.8671 3.7108 26.1246 3.7108C26.3822 3.7108 26.5912 3.92302 26.5912 4.18449C26.5912 4.44597 26.3822 4.65818 26.1246 4.65818C25.8671 4.65818 25.6581 4.44597 25.6581 4.18449Z" fill="#A4AFC1"/>
</g>
<g id="regular_1.5">
<path id="Shape_2" fill-rule="evenodd" clip-rule="evenodd" d="M13.9951 17.4479C13.9951 20.0598 16.0879 22.1848 18.6603 22.1848C21.2327 22.1848 23.3255 20.0598 23.3255 17.4479C23.3255 14.836 21.2327 12.711 18.6603 12.711C16.0879 12.711 13.9951 14.836 13.9951 17.4479ZM15.3947 17.4479C15.3947 15.6194 16.8596 14.1321 18.6603 14.1321C20.4611 14.1321 21.926 15.6194 21.926 17.4479C21.926 19.2763 20.4611 20.7637 18.6603 20.7637C16.8596 20.7637 15.3947 19.2763 15.3947 17.4479Z" fill="#2B2B2B"/>
<path id="Shape_3" fill-rule="evenodd" clip-rule="evenodd" d="M6.29827 25.0268H23.5594C24.9748 25.0268 26.1253 23.8587 26.1253 22.4216V12.4741C26.1253 11.0369 24.9748 9.86881 23.5594 9.86881H23.0584L22.3679 8.46669C21.9304 7.57899 21.0514 7.02667 20.0736 7.02667H16.0821C15.1043 7.02667 14.2253 7.57899 13.7877 8.46669L13.0973 9.86881H6.29827C4.88285 9.86881 3.73242 11.0369 3.73242 12.4741V22.4216C3.73242 23.8587 4.88285 25.0268 6.29827 25.0268ZM5.13206 12.4741C5.13206 11.8214 5.6555 11.2899 6.29836 11.2899H13.5294C13.7944 11.2899 14.037 11.1374 14.1555 10.8977L15.039 9.10241C15.2378 8.69883 15.638 8.44777 16.0822 8.44777H20.0737C20.5178 8.44777 20.9181 8.69883 21.1168 9.10146L22.0004 10.8967C22.1189 11.1374 22.3615 11.2899 22.6265 11.2899H23.5595C24.2024 11.2899 24.7258 11.8214 24.7258 12.4741V22.4216C24.7258 23.0743 24.2024 23.6058 23.5595 23.6058H6.29836C5.6555 23.6058 5.13206 23.0743 5.13206 22.4216V12.4741Z" fill="#2B2B2B"/>
<path id="Path_9" d="M7.23047 13.1847H10.4961V14.6058H7.23047V13.1847Z" fill="#2B2B2B"/>
<path id="Path_10" d="M7.93066 8.68451H9.33022V10.5793H7.93066V8.68451Z" fill="#2B2B2B"/>
<path id="Path_11" d="M0 23.6058H29.8571V25.0268H0V23.6058Z" fill="#2B2B2B"/>
</g>
</g>
</svg>
