<?xml version="1.0" encoding="UTF-8"?>
<svg width="40px" height="40px" viewBox="0 0 40 40" version="1.1" xmlns="http://www.w3.org/2000/svg" xmlns:xlink="http://www.w3.org/1999/xlink">
    <title>5AFFDE2F-D61A-4620-BBD5-0DE94032536A@1.5x</title>
    <defs>
        <rect id="path-1" x="0" y="0" width="26" height="26"></rect>
    </defs>
    <g id="Design" stroke="none" stroke-width="1" fill="none" fill-rule="evenodd">
        <g id="13_VirtualLearn_Search" transform="translate(-311.000000, -132.000000)">
            <g id="search" transform="translate(24.000000, 132.000000)">
                <g id="icn_filter_search" transform="translate(287.000000, 0.000000)">
                    <rect id="Rectangle-Copy" fill="#EE5C4D" x="0" y="0" width="40" height="40" rx="6"></rect>
                    <g id="Mask_Group_9-Clipped" transform="translate(7.000000, 7.000000)">
                        <mask id="mask-2" fill="white">
                            <use xlink:href="#path-1"></use>
                        </mask>
                        <g id="Rectangle_12"></g>
                        <path d="M24.4545455,20.3333333 L24.4545455,24 L21.9090909,24 L21.9090909,20.3333333 L19.3636364,20.3333333 L19.3636364,17.8888889 L27,17.8888889 L27,20.3333333 L24.4545455,20.3333333 Z M4.09090909,20.3333333 L4.09090909,24 L1.54545455,24 L1.54545455,20.3333333 L-1,20.3333333 L-1,17.8888889 L6.63636364,17.8888889 L6.63636364,20.3333333 L4.09090909,20.3333333 Z M11.7272727,5.66666667 L11.7272727,2 L14.2727273,2 L14.2727273,5.66666667 L16.8181818,5.66666667 L16.8181818,8.11111111 L9.18181818,8.11111111 L9.18181818,5.66666667 L11.7272727,5.66666667 Z M11.7272727,10.5555556 L14.2727273,10.5555556 L14.2727273,24 L11.7272727,24 L11.7272727,10.5555556 Z M1.54545455,15.4444444 L1.54545455,2 L4.09090909,2 L4.09090909,15.4444444 L1.54545455,15.4444444 Z M21.9090909,15.4444444 L21.9090909,2 L24.4545455,2 L24.4545455,15.4444444 L21.9090909,15.4444444 Z" id="Path_15" fill="#FFFFFF" fill-rule="nonzero" mask="url(#mask-2)"></path>
                    </g>
                </g>
            </g>
        </g>
    </g>
</svg>