<svg width="32" height="33" viewBox="0 0 32 33" fill="none" xmlns="http://www.w3.org/2000/svg">
<g id="icn_categories suggestion_IT">
<path id="Path" d="M25.1026 29.6055C18.3261 29.6055 13.6726 33 10.4073 33C7.14199 33 0.28418 31.1848 0.28418 16.6587C0.28418 2.13255 9.5099 0 13.1014 0C29.9197 0 37.1038 29.6055 25.1026 29.6055Z" fill="#EFEFEF"/>
<path id="Shape" fill-rule="evenodd" clip-rule="evenodd" d="M27.4307 3.24114C27.4307 4.0638 28.09 4.73326 28.9002 4.73326C29.7104 4.73326 30.3697 4.0638 30.3697 3.24114C30.3697 2.41849 29.7104 1.74902 28.9002 1.74902C28.09 1.74902 27.4307 2.41849 27.4307 3.24114ZM28.4102 3.24116C28.4102 2.96761 28.6306 2.74379 28.9 2.74379C29.1695 2.74379 29.3899 2.96761 29.3899 3.24116C29.3899 3.51472 29.1695 3.73854 28.9 3.73854C28.6306 3.73854 28.4102 3.51472 28.4102 3.24116Z" fill="#A4AFC1"/>
<path id="Path_2" d="M25.7171 8.46368C26.2579 8.46368 26.6968 8.90933 26.6968 9.45843V20.4006H4.65381V9.45843C4.65381 8.90933 5.09271 8.46368 5.6335 8.46368H25.7171Z" fill="#F3F3F1"/>
<path id="Path_3" d="M4.65381 20.4005H26.6968V22.8874C26.6968 23.4365 26.2579 23.8821 25.7171 23.8821H5.6335C5.09271 23.8821 4.65381 23.4365 4.65381 22.8874V20.4005Z" fill="#FCBE4B"/>
<path id="Path_4" d="M17.3892 23.8821C17.3892 23.8821 17.6292 25.6378 18.8391 26.8663H18.8587H12.4907C13.7153 25.6229 13.9407 23.8821 13.9407 23.8821H17.3892Z" fill="#FCBE4B"/>
<path id="Path_5" d="M8.57197 7.46887C8.03119 7.46887 7.59229 7.91452 7.59229 8.46362V10.9505C7.59229 11.4996 8.03119 11.9452 8.57197 11.9452H22.7774C23.3182 11.9452 23.7571 11.4996 23.7571 10.9505V8.46362C23.7571 7.91452 23.3182 7.46887 22.7774 7.46887H8.57197Z" fill="#FCBE4B"/>
<path id="Path_6" d="M6.85811 22.8874V20.4005H4.65381V22.8874C4.65381 23.4365 5.09271 23.8821 5.6335 23.8821H7.83779C7.29701 23.8821 6.85811 23.4365 6.85811 22.8874Z" fill="#E1960A"/>
<path id="Path_7" d="M13.9407 23.8821C13.9407 23.8821 13.7153 25.6229 12.4907 26.8663H14.695C15.9196 25.6229 16.145 23.8821 16.145 23.8821H13.9407Z" fill="#E1960A"/>
<path id="Path_8" d="M9.79658 10.9505V8.46362C9.79658 7.91452 10.2355 7.46887 10.7763 7.46887H8.57197C8.03119 7.46887 7.59229 7.91452 7.59229 8.46362V10.9505C7.59229 11.4996 8.03119 11.9452 8.57197 11.9452H10.7763C10.2355 11.9452 9.79658 11.4996 9.79658 10.9505Z" fill="#E1960A"/>
<path id="Path_9" d="M7.83779 8.46368H5.6335C5.09271 8.46368 4.65381 8.90933 4.65381 9.45843V20.4006H6.85811V9.45843C6.85811 8.90933 7.29701 8.46368 7.83779 8.46368Z" fill="#D5DBE1"/>
<path id="Path_10" d="M22.7771 12.6912H15.1846V11.1991H22.7771C22.9123 11.1991 23.0221 11.0877 23.0221 10.9504V8.46352C23.0221 8.32625 22.9123 8.21484 22.7771 8.21484H15.1846V6.72272H22.7771C23.7225 6.72272 24.4916 7.50359 24.4916 8.46352V10.9504C24.4916 11.9103 23.7225 12.6912 22.7771 12.6912Z" fill="#2B2B2B"/>
<path id="Path_11" d="M10.7771 12.6912H8.57285C7.62745 12.6912 6.8584 11.9103 6.8584 10.9504V8.46352C6.8584 7.50359 7.62745 6.72272 8.57285 6.72272H10.7771V8.21484H8.57285C8.43765 8.21484 8.32793 8.32625 8.32793 8.46352V10.9504C8.32793 11.0877 8.43765 11.1991 8.57285 11.1991H10.7771V12.6912Z" fill="#2B2B2B"/>
<path id="Path_12" d="M13.7156 7.96614H12.2461V5.47927C12.2461 5.342 12.1364 5.23058 12.0012 5.23058H9.79688V3.73846H12.0012C12.9466 3.73846 13.7156 4.51934 13.7156 5.47927V7.96614Z" fill="#2B2B2B"/>
<path id="Path_13" d="M12.0012 15.6754H9.79688V14.1833H12.0012C12.1364 14.1833 12.2461 14.0719 12.2461 13.9346V11.4478H13.7156V13.9346C13.7156 14.8946 12.9466 15.6754 12.0012 15.6754Z" fill="#2B2B2B"/>
<path id="Path_14" d="M16.1648 15.6754H13.9605C13.0151 15.6754 12.2461 14.8945 12.2461 13.9346V5.47927C12.2461 4.51934 13.0151 3.73846 13.9605 3.73846H16.1648V5.23058H13.9605C13.8253 5.23058 13.7156 5.342 13.7156 5.47927V13.9346C13.7156 14.0719 13.8253 14.1833 13.9605 14.1833H16.1648V15.6754Z" fill="#2B2B2B"/>
<path id="Path_15" d="M25.7165 24.6282H5.63291C4.68751 24.6282 3.91846 23.8473 3.91846 22.8874V8.21484H5.38799V22.8874C5.38799 23.0246 5.49771 23.136 5.63291 23.136H25.7165C25.8517 23.136 25.9614 23.0246 25.9614 22.8874V8.21484H27.431V22.8874C27.431 23.8473 26.6619 24.6282 25.7165 24.6282Z" fill="#2B2B2B"/>
<path id="Path_16" d="M4.65381 19.6545H26.6968V21.1467H4.65381V19.6545Z" fill="#2B2B2B"/>
<path id="Path_17" d="M18.8592 27.6125H12.4912C12.1934 27.6125 11.926 27.4304 11.8123 27.1519C11.6997 26.8734 11.7614 26.5521 11.972 26.3392C12.9968 25.2987 13.2123 23.7976 13.2143 23.7827L14.6701 23.9796C14.6632 24.0383 14.5261 25.04 13.9422 26.1203H17.3926C16.8136 25.046 16.6706 24.0433 16.6618 23.9856L18.1166 23.7777C18.1195 23.7926 18.3351 25.229 19.2785 26.2536C19.4696 26.3889 19.594 26.6127 19.594 26.8664C19.594 27.2782 19.2648 27.6125 18.8592 27.6125Z" fill="#2B2B2B"/>
<path id="Path_18" d="M0 26.1204H31.35V27.6125H0V26.1204Z" fill="#2B2B2B"/>
</g>
</svg>
