<svg width="33" height="33" viewBox="0 0 33 33" fill="none" xmlns="http://www.w3.org/2000/svg">
<g id="icn_categories suggestion_finance">
<path id="Path" d="M26.6898 3.13395C19.8476 3.25635 15.0813 -0.0589796 11.7843 0.000798873C8.48735 0.0605773 1.5966 2.00195 1.88059 16.549C2.16457 31.096 11.5221 33.063 15.1495 32.9985C32.132 32.6939 38.809 2.91666 26.6898 3.13395Z" fill="#EFEFEF"/>
<g id="Group">
<path id="Path_2" d="M5.54433 2.86781L6.94346 1.45903L7.64302 2.16342L6.24389 3.5722L5.54433 2.86781Z" fill="#A4AFC1"/>
<path id="Path_3" d="M1.52187 6.91646L2.921 5.50768L3.62056 6.21207L2.22143 7.62085L1.52187 6.91646Z" fill="#A4AFC1"/>
<path id="Path_4" d="M1.52187 1.98485L2.22143 1.28046L3.62056 2.68924L2.921 3.39363L1.52187 1.98485Z" fill="#A4AFC1"/>
</g>
<path id="Path_5" d="M26.5246 20.7091V23.6103C26.5246 24.6744 25.6548 25.5442 24.5931 25.5442H8.1717C7.109 25.5442 6.24023 24.6734 6.24023 23.6103V11.0389C6.24023 9.97488 7.10999 9.1051 8.1717 9.1051H24.5921C25.6548 9.1051 26.5236 9.97588 26.5236 11.0389V14.9066V20.7091H26.5246Z" fill="#F3F3F1"/>
<path id="Path_6" d="M27.5972 20.5626H21.8256C20.3225 20.5626 19.1045 19.3362 19.1045 17.8228C19.1045 16.3094 20.3225 15.0829 21.8256 15.0829H27.5972C28.0979 15.0829 28.5046 15.4914 28.5046 15.9966V19.65C28.5046 20.1542 28.0989 20.5626 27.5972 20.5626Z" fill="#FCBE4B"/>
<rect id="Rectangle" x="26.272" y="15.2122" width="1.65" height="5.07073" fill="#E1960A"/>
<path id="Path_7" d="M24.594 26.2914H8.1726C6.69827 26.2914 5.49902 25.0878 5.49902 23.6103V11.0389C5.49902 9.56139 6.69827 8.35785 8.1726 8.35785H24.594C26.0684 8.35785 27.2676 9.56139 27.2676 11.0389V14.9066H25.7834V11.0389C25.7834 10.3843 25.2501 9.85231 24.594 9.85231H8.1726C7.51658 9.85231 6.98325 10.3853 6.98325 11.0389V23.6093C6.98325 24.2639 7.51658 24.7959 8.1726 24.7959H24.594C25.2501 24.7959 25.7834 24.2629 25.7834 23.6093V20.7081H27.2676V23.6093C27.2676 25.0878 26.0684 26.2914 24.594 26.2914Z" fill="#2B2B2B"/>
<path id="Shape" fill-rule="evenodd" clip-rule="evenodd" d="M21.825 21.3098H27.5966C28.506 21.3098 29.2461 20.5646 29.2461 19.65V15.9965C29.2461 15.0809 28.506 14.3357 27.5966 14.3357H21.825C19.9153 14.3357 18.3618 15.8999 18.3618 17.8228C18.3618 19.7456 19.9153 21.3098 21.825 21.3098ZM19.846 17.8227C19.846 16.7238 20.7335 15.8301 21.8249 15.8301V15.8291H27.5966C27.6876 15.8291 27.7618 15.9039 27.7618 15.9955V19.649C27.7618 19.7406 27.6876 19.8154 27.5966 19.8154H21.8249C20.7335 19.8154 19.846 18.9217 19.846 17.8227Z" fill="#2B2B2B"/>
<ellipse id="Oval" cx="21.8254" cy="17.8228" rx="0.989481" ry="0.996307" fill="#2B2B2B"/>
</g>
</svg>
