<svg width="32" height="33" viewBox="0 0 32 33" fill="none" xmlns="http://www.w3.org/2000/svg">
<g id="icn_categories suggestion_marketing">
<path id="Path" d="M3.22482 6.39306C3.22482 13.6579 0 18.6468 0 22.1474C0 25.648 1.72447 33 15.5247 33C29.3249 33 31.35 23.1094 31.35 19.2591C31.3509 1.22879 3.22482 -6.47297 3.22482 6.39306Z" fill="#EFEFEF"/>
<path id="Path_2" d="M20.3996 7.70927V24.6938C20.3996 25.7037 19.5896 26.53 18.5996 26.53H9.14919C8.15915 26.53 7.34912 25.7037 7.34912 24.6938V7.70927C7.34912 6.69938 8.15915 5.87311 9.14919 5.87311H9.59921C10.3462 5.87311 10.9493 6.48822 10.9493 7.25023C10.9493 7.75518 11.3543 8.16831 11.8493 8.16831H15.8994C16.3945 8.16831 16.7995 7.75518 16.7995 7.25023C16.7995 6.48822 17.4025 5.87311 18.1495 5.87311H18.5996C19.5896 5.87311 20.3996 6.69938 20.3996 7.70927Z" fill="#F3F3F1"/>
<path id="Path_3" d="M18.1509 5.87311C17.4039 5.87311 16.8009 6.48822 16.8009 7.25023C16.8009 7.75518 16.3958 8.16831 15.9008 8.16831H11.8507C11.3557 8.16831 10.9506 7.75518 10.9506 7.25023C10.9506 6.48822 10.3476 5.87311 9.60059 5.87311H18.1509Z" fill="#FCBE4B"/>
<path id="Path_4" d="M24.0007 17.8533L14.5503 15.0311V13.654L24.0007 10.8997V17.8533Z" fill="#FCBE4B"/>
<path id="Path_5" d="M18.8251 7.25023C18.8251 6.76548 19.0699 6.34133 19.4407 6.0962C19.1887 5.95849 18.9052 5.87311 18.601 5.87311H18.151C17.4039 5.87311 16.8009 6.48822 16.8009 7.25023C16.8009 7.75518 16.3959 8.16831 15.9009 8.16831H17.926C18.4201 8.16831 18.8251 7.75518 18.8251 7.25023Z" fill="#D5DBE1"/>
<path id="Path_6" d="M9.3742 24.6938V7.70927C9.3742 7.01061 9.76661 6.40651 10.3345 6.0962C10.123 5.95665 9.87102 5.87311 9.59921 5.87311H9.14919C8.15915 5.87311 7.34912 6.69938 7.34912 7.70927V24.6938C7.34912 25.7037 8.15915 26.53 9.14919 26.53H11.1743C10.1842 26.53 9.3742 25.7037 9.3742 24.6938Z" fill="#D5DBE1"/>
<path id="Path_7" d="M12.9757 7.25023C12.9757 6.48822 12.3727 5.87311 11.6257 5.87311H9.60059C10.3476 5.87311 10.9506 6.48822 10.9506 7.25023C10.9506 7.75518 11.3557 8.16831 11.8507 8.16831H13.8757C13.3807 8.16831 12.9757 7.75518 12.9757 7.25023Z" fill="#E1960A"/>
<path id="Path_8" d="M16.5754 15.0311V13.654L24.0007 11.49V10.8997L14.5503 13.654V15.0311L24.0007 17.8533V17.2483L16.5754 15.0311Z" fill="#E1960A"/>
<path id="Path_9" d="M15.8997 8.85696H11.8495C10.981 8.85696 10.2745 8.13627 10.2745 7.25032C10.2745 6.87115 9.97205 6.56176 9.59943 6.56176H9.14941V5.18463H9.59943C10.7164 5.18463 11.6245 6.11189 11.6245 7.25032C11.6245 7.37701 11.7253 7.47984 11.8495 7.47984H15.8997C16.0239 7.47984 16.1247 7.37701 16.1247 7.25032C16.1247 6.11189 17.0328 5.18463 18.1498 5.18463H18.5998V6.56176H18.1498C17.7771 6.56176 17.4747 6.87115 17.4747 7.25032C17.4747 8.13627 16.7682 8.85696 15.8997 8.85696Z" fill="#2B2B2B"/>
<path id="Path_10" d="M18.5993 27.2186H9.14892C7.78357 27.2186 6.67383 26.0866 6.67383 24.6939V7.70936C6.67383 6.31663 7.78357 5.18463 9.14892 5.18463H18.5993C19.9646 5.18463 21.0744 6.31663 21.0744 7.70936V9.76586H19.7243V7.70936C19.7243 7.0768 19.2194 6.56176 18.5993 6.56176H9.14892C8.5288 6.56176 8.02388 7.0768 8.02388 7.70936V24.6939C8.02388 25.3265 8.5288 25.8415 9.14892 25.8415H18.5993C19.2194 25.8415 19.7243 25.3265 19.7243 24.6939V19.2864H21.0744V24.6939C21.0744 26.0866 19.9646 27.2186 18.5993 27.2186Z" fill="#2B2B2B"/>
<path id="Shape" fill-rule="evenodd" clip-rule="evenodd" d="M23.8105 18.5143C23.8726 18.5327 23.9365 18.5419 24.0004 18.5419C24.1444 18.5419 24.2866 18.4941 24.4054 18.4051C24.5755 18.2747 24.6754 18.07 24.6754 17.8533V10.8998C24.6754 10.6831 24.5764 10.4802 24.4072 10.3498C24.238 10.2185 24.0193 10.1781 23.815 10.2378L14.3646 12.9921C14.0748 13.0765 13.875 13.3464 13.875 13.654V15.0311C13.875 15.3368 14.073 15.6058 14.3601 15.6921L23.8105 18.5143ZM23.3253 16.9343L15.225 14.5152V14.1727L23.3253 11.8123V16.9343Z" fill="#2B2B2B"/>
<path id="Path_11" d="M23.3247 9.7522H24.6748V18.933H23.3247V9.7522Z" fill="#2B2B2B"/>
<path id="Path_12" d="M13.875 12.5063H15.2251V16.1786H13.875V12.5063Z" fill="#2B2B2B"/>
<path id="Path_13" d="M17.7004 18.9789C16.5834 18.9789 15.6753 18.0516 15.6753 16.9132C15.6753 16.1888 16.0488 15.5168 16.65 15.1606L17.3287 16.3513C17.1387 16.4643 17.0253 16.6745 17.0253 16.9132C17.0253 17.2924 17.3278 17.6018 17.7004 17.6018C18.073 17.6018 18.3754 17.2924 18.3754 16.9132C18.3754 16.8131 18.3565 16.7305 18.3178 16.6543L19.513 16.0144C19.6534 16.288 19.7254 16.59 19.7254 16.9132C19.7254 18.0525 18.8173 18.9789 17.7004 18.9789Z" fill="#2B2B2B"/>
<g id="Group">
<path id="Shape_2" fill-rule="evenodd" clip-rule="evenodd" d="M19.7256 29.9729C19.7256 30.7321 20.3313 31.35 21.0756 31.35C21.82 31.35 22.4257 30.7321 22.4257 29.9729C22.4257 29.2136 21.82 28.5958 21.0756 28.5958C20.3313 28.5958 19.7256 29.2136 19.7256 29.9729ZM20.6254 29.9729C20.6254 29.7205 20.827 29.5139 21.0754 29.5139C21.3238 29.5139 21.5254 29.7205 21.5254 29.9729C21.5254 30.2254 21.3238 30.432 21.0754 30.432C20.827 30.432 20.6254 30.2254 20.6254 29.9729Z" fill="#A4AFC1"/>
<path id="Path_14" d="M19.098 2.30916L19.7343 1.66007L21.007 2.95824L20.3707 3.60733L19.098 2.30916Z" fill="#A4AFC1"/>
<path id="Path_15" d="M22.7557 6.04378L23.3921 5.39469L24.6647 6.69286L24.0284 7.34194L22.7557 6.04378Z" fill="#A4AFC1"/>
<path id="Path_16" d="M22.5961 2.95604L23.8687 1.65787L24.505 2.30696L23.2324 3.60513L22.5961 2.95604Z" fill="#A4AFC1"/>
</g>
</g>
</svg>
