<?xml version="1.0" encoding="UTF-8"?>
<svg width="16px" height="16px" viewBox="0 0 16 16" version="1.1" xmlns="http://www.w3.org/2000/svg" xmlns:xlink="http://www.w3.org/1999/xlink">
    <title>3B8D6C89-78B8-4015-AD9F-BF61B86C821B@1.5x</title>
    <defs>
        <path d="M31.9854689,81 L37.7958932,86.8104103 C38.0679882,87.082539 38.0679986,87.5237309 37.7959262,87.7959044 C37.6635923,87.9282712 37.4866862,88 37.3031841,88 C37.1196758,88 36.9427713,87.9282666 36.8104277,87.7958902 L31,81.9854641 L25.1896283,87.7958508 C25.0572476,87.9282646 24.8803693,88 24.6968601,88 C24.5133263,88 24.336425,87.9282766 24.2041043,87.7958901 C23.9319673,87.5237526 23.9319673,87.0825416 24.2041044,86.810404 L30.0145243,80.9999847 L24.2041046,75.1895633 C23.9319662,74.9174248 23.9319662,74.4762088 24.2040984,74.2041102 C24.4762104,73.9319643 24.917458,73.9319643 25.1895637,74.2041038 L30.9999898,80.0145193 L36.8104058,74.204104 C37.0825429,73.9319664 37.5237536,73.9319664 37.7958969,74.2041103 C38.0679997,74.4762473 38.0679997,74.9174536 37.7958906,75.1895632 L31.9854689,81 Z" id="path-1"></path>
    </defs>
    <g id="Design" stroke="none" stroke-width="1" fill="none" fill-rule="evenodd">
        <g id="Header" transform="translate(-23.000000, -73.000000)">
            <mask id="mask-2" fill="white">
                <use xlink:href="#path-1"></use>
            </mask>
            <use id="icn_close_white" stroke="#FFFFFF" stroke-width="0.5" fill="#FFFFFF" fill-rule="nonzero" xlink:href="#path-1"></use>
        </g>
    </g>
</svg>