<svg width="32" height="33" viewBox="0 0 32 33" fill="none" xmlns="http://www.w3.org/2000/svg">
<g id="icn_categories suggestion_design">
<path id="Path" d="M25.2766 3.39455C18.375 3.39455 13.6356 0 10.31 0C6.98441 0 0 1.81523 0 16.3418C0 30.8683 9.39603 33 13.0539 33C30.1826 33.0009 37.4993 3.39455 25.2766 3.39455Z" fill="#EFEFEF"/>
<path id="Shape" fill-rule="evenodd" clip-rule="evenodd" d="M13.0459 3.41439C13.0459 4.15772 13.6358 4.76262 14.3607 4.76262C15.0857 4.76262 15.6756 4.15772 15.6756 3.41439C15.6756 2.67107 15.0857 2.06616 14.3607 2.06616C13.6358 2.06616 13.0459 2.67107 13.0459 3.41439ZM13.9226 3.41441C13.9226 3.16634 14.119 2.965 14.3609 2.965C14.6028 2.965 14.7992 3.16634 14.7992 3.41441C14.7992 3.66248 14.6028 3.86382 14.3609 3.86382C14.119 3.86382 13.9226 3.66248 13.9226 3.41441Z" fill="#A4AFC1"/>
<g id="Group">
<path id="Path_2" d="M5.81396 7.2345H8.00537V9.48155H5.81396V7.2345Z" fill="#2FDF84"/>
<path id="Path_3" d="M24.0029 19.3685C23.3981 19.3685 22.9072 18.8652 22.9072 18.245C22.9072 17.6248 23.3981 17.1215 24.0029 17.1215C24.6078 17.1215 25.0986 17.6248 25.0986 18.245C25.0986 18.8652 24.6078 19.3685 24.0029 19.3685Z" fill="#2FDF84"/>
<path id="Path_4" d="M19.401 27.4579L18.6261 21.4969C18.5682 21.0502 18.1966 20.7167 17.7574 20.7167H13.5946C13.1555 20.7167 12.7838 21.0502 12.726 21.4969L11.9502 27.4579H19.401Z" fill="#FCBE4B"/>
<path id="Path_5" d="M7.34766 19.3685C6.74283 19.3685 6.25195 18.8652 6.25195 18.245C6.25195 17.6248 6.74283 17.1215 7.34766 17.1215C7.95248 17.1215 8.44336 17.6248 8.44336 18.245C8.44336 18.8652 7.95248 19.3685 7.34766 19.3685Z" fill="#2FDF84"/>
<path id="Path_6" d="M23.3452 7.2345H25.5366V9.48155H23.3452V7.2345Z" fill="#2FDF84"/>
</g>
<path id="Path_7" d="M17.2157 20.7168L19.401 17.4361L15.6756 8.5827L11.9502 17.4361L14.1355 20.7168H17.2157Z" fill="#F3F3F1"/>
<path id="Path_8" d="M5.81396 7.2345H7.78623V9.48155H5.81396V7.2345Z" fill="#FCBE4B"/>
<path id="Path_9" d="M24.8795 18.245C24.8795 18.0742 24.9224 17.9169 24.9891 17.7722C24.8137 17.3902 24.4412 17.1215 24.0029 17.1215C23.3981 17.1215 22.9072 17.6248 22.9072 18.245C22.9072 18.8652 23.3981 19.3685 24.0029 19.3685C24.4412 19.3685 24.8137 19.0998 24.9891 18.7178C24.9224 18.5731 24.8795 18.4158 24.8795 18.245Z" fill="#FCBE4B"/>
<path id="Path_10" d="M15.566 20.7167H13.5937C13.1546 20.7167 12.7829 21.0502 12.7251 21.4969L11.9502 27.4579H13.9225L14.6973 21.4969C14.7561 21.0502 15.1269 20.7167 15.566 20.7167V20.7167Z" fill="#E1960A"/>
<path id="Path_11" d="M8.22422 18.245C8.22422 18.0742 8.26717 17.9169 8.33379 17.7722C8.15848 17.3902 7.78594 17.1215 7.34766 17.1215C6.74283 17.1215 6.25195 17.6248 6.25195 18.245C6.25195 18.8652 6.74283 19.3685 7.34766 19.3685C7.78594 19.3685 8.15848 19.0998 8.33379 18.7178C8.26717 18.5731 8.22422 18.4158 8.22422 18.245Z" fill="#FCBE4B"/>
<path id="Path_12" d="M23.3452 7.2345H25.3175V9.48155H23.3452V7.2345Z" fill="#FCBE4B"/>
<path id="Path_13" d="M16.6617 10.9259L15.6756 8.5827L11.9502 17.4361L14.1355 20.7168H16.1077L13.9225 17.4361L16.6617 10.9259Z" fill="#D5DBE1"/>
<path id="Path_14" d="M24.6595 16.8967H23.3446C23.3446 12.5599 19.9041 9.03207 15.6747 9.03207C11.4453 9.03207 8.00479 12.5599 8.00479 16.8967H6.68994C6.68994 11.8166 10.7204 7.68384 15.6747 7.68384C20.629 7.68384 24.6595 11.8166 24.6595 16.8967Z" fill="#2B2B2B"/>
<path id="Shape_2" fill-rule="evenodd" clip-rule="evenodd" d="M5.81367 10.1556H8.00508C8.36797 10.1556 8.6625 9.85358 8.6625 9.48147V7.23442C8.6625 6.86231 8.36797 6.5603 8.00508 6.5603H5.81367C5.45077 6.5603 5.15625 6.86231 5.15625 7.23442V9.48147C5.15625 9.85358 5.45077 10.1556 5.81367 10.1556ZM7.34766 8.80737H6.47109V7.90855H7.34766V8.80737Z" fill="#2B2B2B"/>
<path id="Shape_3" fill-rule="evenodd" clip-rule="evenodd" d="M22.2495 18.2449C22.2495 19.2363 23.0358 20.0425 24.0026 20.0425C24.9695 20.0425 25.7558 19.2363 25.7558 18.2449C25.7558 17.2535 24.9695 16.4473 24.0026 16.4473C23.0358 16.4473 22.2495 17.2535 22.2495 18.2449ZM23.5644 18.2449C23.5644 17.9968 23.7608 17.7955 24.0027 17.7955C24.2446 17.7955 24.441 17.9968 24.441 18.2449C24.441 18.493 24.2446 18.6943 24.0027 18.6943C23.7608 18.6943 23.5644 18.493 23.5644 18.2449Z" fill="#2B2B2B"/>
<path id="Path_15" d="M8.22363 7.68384H23.1252V9.03207H8.22363V7.68384Z" fill="#2B2B2B"/>
<path id="Path_16" d="M17.7576 21.097L16.6724 20.3366L18.6535 17.3624L15.6749 10.2842L12.6963 17.3624L14.6774 20.3366L13.5922 21.097L11.4069 17.8163C11.2798 17.6257 11.257 17.3813 11.3464 17.1691L15.0718 8.31577C15.2796 7.82232 16.0711 7.82232 16.2788 8.31577L20.0042 17.1691C20.0936 17.3813 20.0709 17.6257 19.9438 17.8163L17.7576 21.097Z" fill="#2B2B2B"/>
<path id="Path_17" d="M18.8348 28.2155L17.9731 21.5858C17.9591 21.4744 17.8653 21.3908 17.7557 21.3908H13.5929C13.4834 21.3908 13.3905 21.4744 13.3756 21.5858L12.5139 28.2146L11.2104 28.0366L12.0721 21.407C12.1747 20.6295 12.8277 20.0425 13.5929 20.0425H17.7557C18.521 20.0425 19.1749 20.6295 19.2757 21.407L20.1382 28.0366L18.8348 28.2155Z" fill="#2B2B2B"/>
<path id="Path_18" d="M15.0176 9.03204H16.3324V16.4473H15.0176V9.03204Z" fill="#2B2B2B"/>
<path id="Shape_4" fill-rule="evenodd" clip-rule="evenodd" d="M5.59424 18.2449C5.59424 19.2363 6.38051 20.0425 7.34736 20.0425C8.31421 20.0425 9.10049 19.2363 9.10049 18.2449C9.10049 17.2535 8.31421 16.4473 7.34736 16.4473C6.38051 16.4473 5.59424 17.2535 5.59424 18.2449ZM6.90901 18.2449C6.90901 17.9968 7.10536 17.7955 7.34729 17.7955C7.58922 17.7955 7.78557 17.9968 7.78557 18.2449C7.78557 18.493 7.58922 18.6943 7.34729 18.6943C7.10536 18.6943 6.90901 18.493 6.90901 18.2449Z" fill="#2B2B2B"/>
<path id="Shape_5" fill-rule="evenodd" clip-rule="evenodd" d="M23.3449 10.1556H25.5363C25.8992 10.1556 26.1938 9.85358 26.1938 9.48147V7.23442C26.1938 6.86231 25.8992 6.5603 25.5363 6.5603H23.3449C22.982 6.5603 22.6875 6.86231 22.6875 7.23442V9.48147C22.6875 9.85358 22.982 10.1556 23.3449 10.1556ZM24.8789 8.80737H24.0023V7.90855H24.8789V8.80737Z" fill="#2B2B2B"/>
<path id="Path_19" d="M1.64941 27.0084H29.6994V28.3567H1.64941V27.0084Z" fill="#2B2B2B"/>
</g>
</svg>
