<svg width="32" height="33" viewBox="0 0 32 33" fill="none" xmlns="http://www.w3.org/2000/svg">
<g id="icn_categories suggestion_fitness">
<path id="Path" d="M3.22482 26.6069C3.22482 19.3421 0 14.3532 0 10.8526C0 7.35202 1.72447 0 15.5247 0C29.3249 0 31.35 9.89056 31.35 13.7409C31.3509 31.7712 3.22482 39.473 3.22482 26.6069Z" fill="#EFEFEF"/>
<path id="Path_2" d="M25.5029 18.2931C24.4484 22.7908 19.1264 22.9675 16.7886 20.974C14.819 23.0657 11.3771 23.1836 9.41735 21.1213C7.84561 20.7875 6.42308 19.9527 4.98066 18.4994C4.54296 18.0673 4.37384 17.4388 4.5529 16.8496C5.19951 14.6498 6.86078 8.96395 7.49744 6.8035C7.6566 6.27321 8.07441 5.84113 8.61159 5.67418L11.7849 4.64306C12.4912 4.4172 13.2771 4.59396 13.8043 5.11443L15.0478 6.32231C15.3363 6.59728 15.386 7.02937 15.1672 7.36326L13.9436 9.26837C13.6551 9.7201 12.9985 9.79866 12.6006 9.41568L11.6556 8.48276L9.6362 15.2587C11.6158 13.4125 14.8886 13.5991 16.7886 15.6122C19.1264 13.6187 24.4484 13.7955 25.5029 18.2931Z" fill="#F3F3F1"/>
<path id="Path_3" d="M16.7126 22.4245L17.2956 21.849C17.6845 21.465 18.3142 21.465 18.7022 21.849L21.2747 24.3885C21.6636 24.7725 21.6636 25.3941 21.2747 25.7771L20.6917 26.3526C20.3028 26.7365 19.6731 26.7365 19.2851 26.3526L16.7126 23.8131C16.3237 23.4301 16.3237 22.8084 16.7126 22.4245Z" fill="#FCBE4B"/>
<path id="Path_4" d="M22.0131 17.1922L22.5961 16.6168C22.985 16.2328 23.6147 16.2328 24.0027 16.6168L26.5752 19.1563C26.9641 19.5402 26.9641 20.1619 26.5752 20.5448L25.9922 21.1203C25.6033 21.5043 24.9736 21.5043 24.5856 21.1203L22.0131 18.5808C21.6252 18.1968 21.6252 17.5752 22.0131 17.1922Z" fill="#FCBE4B"/>
<path id="Path_5" d="M13.9635 22.5158C12.342 22.8203 10.6111 22.3685 9.41735 21.1214C7.84561 20.7875 6.42308 19.9528 4.98066 18.4994C4.54296 18.0673 4.37384 17.4388 4.5529 16.8496C5.19951 14.6499 6.86078 8.96396 7.49744 6.80352C7.6566 6.27323 8.07441 5.84114 8.61159 5.6742L11.7849 4.64308C12.3022 4.47613 12.8692 4.52523 13.3368 4.79038L10.6011 5.6742C10.064 5.84114 9.64615 6.27323 9.48699 6.80352C8.85033 8.96396 7.18906 14.6499 6.54245 16.8496C6.36339 17.4388 6.53251 18.0673 6.97021 18.4994C8.41263 19.9528 9.83516 20.7875 11.4069 21.1214C12.1132 21.8677 13.0085 22.3292 13.9635 22.5158Z" fill="#D5DBE1"/>
<path id="Path_6" d="M20.9865 26.0706L20.688 26.3554C20.3001 26.7384 19.6734 26.7384 19.2854 26.3554L16.7089 23.8119C16.321 23.429 16.321 22.8103 16.7089 22.4273L17.2959 21.8479C17.6838 21.4649 18.3105 21.4649 18.6985 21.8479L18.9969 22.1425L18.6985 22.4273C18.3105 22.8103 18.3105 23.429 18.6985 23.8119L20.9865 26.0706Z" fill="#E1960A"/>
<path id="Path_7" d="M26.2892 20.8365L25.9908 21.1213C25.6028 21.5043 24.9761 21.5043 24.5881 21.1213L22.0117 18.5779C21.6237 18.1949 21.6237 17.5762 22.0117 17.1932L22.5986 16.6138C22.9866 16.2309 23.6133 16.2309 24.0012 16.6138L24.2997 16.9084L24.0012 17.1932C23.6133 17.5762 23.6133 18.1949 24.0012 18.5779L26.2892 20.8365Z" fill="#E1960A"/>
<path id="Shape" fill-rule="evenodd" clip-rule="evenodd" d="M18.7574 26.8729C19.0966 27.2078 19.5422 27.3757 19.9879 27.3757C20.4336 27.3757 20.8792 27.2078 21.2194 26.8729L21.8024 26.2974C22.4818 25.6267 22.4818 24.5377 21.8024 23.8669L19.2299 21.3274C18.5514 20.6577 17.4462 20.6577 16.7678 21.3274L16.1849 21.9029C15.5054 22.5736 15.5054 23.6627 16.1849 24.3334L18.7574 26.8729ZM17.8224 22.3694C17.8711 22.3212 17.9348 22.2977 17.9985 22.2977C18.0621 22.2977 18.1258 22.3222 18.1745 22.3694L20.747 24.9089C20.8445 25.0051 20.8445 25.1603 20.747 25.2565L20.1641 25.832C20.0666 25.9282 19.9094 25.9282 19.8119 25.832L17.2394 23.2925C17.1419 23.1962 17.1419 23.0411 17.2394 22.9448L17.8224 22.3694Z" fill="#2B2B2B"/>
<path id="Shape_2" fill-rule="evenodd" clip-rule="evenodd" d="M24.0586 21.6408C24.3978 21.9757 24.8435 22.1436 25.2892 22.1436C25.7348 22.1436 26.1815 21.9757 26.5207 21.6408L27.1036 21.0654C27.7831 20.3947 27.7831 19.3056 27.1036 18.6349L24.5311 16.0954C23.8527 15.4256 22.7475 15.4256 22.0691 16.0954L21.4861 16.6708C20.8067 17.3416 20.8067 18.4306 21.4861 19.1013L24.0586 21.6408ZM23.1235 17.1373C23.1723 17.0892 23.2359 17.0656 23.2996 17.0656C23.3643 17.0656 23.4269 17.0892 23.4757 17.1373L26.0482 19.6768C26.1457 19.773 26.1457 19.9282 26.0482 20.0244L25.4652 20.5999C25.3677 20.6961 25.2106 20.6961 25.1131 20.5999L22.5406 18.0604C22.4431 17.9642 22.4431 17.809 22.5406 17.7128L23.1235 17.1373Z" fill="#2B2B2B"/>
<path id="Path_8" d="M19.62 22.4365L22.6041 19.4907L23.6591 20.5321L20.675 23.478L19.62 22.4365Z" fill="#2B2B2B"/>
<path id="Path_9" d="M16.3343 17.421L15.0659 16.6462L15.4589 16.0197C16.2288 14.7892 17.7647 13.927 19.5663 13.7139L20.3064 13.6265L20.4845 15.0888L19.7434 15.1771C18.4094 15.3343 17.2544 15.9539 16.7282 16.7935L16.3343 17.421Z" fill="#2B2B2B"/>
<path id="Path_10" d="M11.9882 22.1887C9.07253 22.1887 6.54381 21.1282 4.44981 19.0198C3.81912 18.3972 3.58336 17.4839 3.84101 16.6413L5.00092 12.6798C5.67239 10.3878 6.40653 7.87875 6.78355 6.60212C7.01534 5.82338 7.61519 5.21649 8.38813 4.97688L11.5475 3.94576C12.5284 3.62562 13.5948 3.87113 14.3299 4.58898L15.5744 5.80276C16.1096 6.31341 16.2051 7.14125 15.7962 7.7668L14.5756 9.66701C14.318 10.0696 13.8912 10.3338 13.4048 10.3908C12.9213 10.4438 12.4329 10.2867 12.0817 9.94786L11.4978 9.37142L9.57688 10.3083L8.91635 8.98647L11.3167 7.81688C11.6012 7.67842 11.9484 7.73341 12.1742 7.95731L13.1292 8.90005C13.1581 8.92754 13.2008 8.93147 13.2297 8.92755L14.5378 6.97333C14.5667 6.92914 14.5617 6.88691 14.5299 6.85647L13.2794 5.6368C12.9462 5.30979 12.4607 5.1998 12.0151 5.34416L8.84473 6.37822C8.54033 6.47348 8.30257 6.71702 8.21304 7.01654C7.83702 8.2912 7.10288 10.7983 6.4324 13.0903L5.26951 17.0596C5.16804 17.3886 5.26055 17.7402 5.50726 17.9837C7.73058 20.2208 10.5259 21.0859 13.8236 20.5664L14.5607 20.4496L14.7965 21.9039L14.0603 22.0198C13.3511 22.1328 12.6597 22.1887 11.9882 22.1887Z" fill="#2B2B2B"/>
<path id="Path_11" d="M16.6811 16.5363L16.1549 16.0148C14.6299 14.5035 12.132 14.2855 10.4687 15.5179L9.87186 15.9598L8.97656 14.7824L9.57343 14.3405C11.8574 12.6485 15.1422 12.9234 17.2123 14.9749L17.7385 15.4963L16.6811 16.5363Z" fill="#2B2B2B"/>
<path id="Path_12" d="M8.52297 16.3329L10.9324 8.24419L12.3644 8.65986L9.95491 16.7486L8.52297 16.3329Z" fill="#2B2B2B"/>
<path id="Shape_3" fill-rule="evenodd" clip-rule="evenodd" d="M22.4194 4.29926C22.4194 5.11139 23.0889 5.77229 23.9116 5.77229C24.7343 5.77229 25.4038 5.11139 25.4038 4.29926C25.4038 3.48713 24.7343 2.82623 23.9116 2.82623C23.0889 2.82623 22.4194 3.48713 22.4194 4.29926ZM23.4142 4.29924C23.4142 4.02918 23.638 3.80823 23.9116 3.80823C24.1862 3.80823 24.409 4.02918 24.409 4.29924C24.409 4.56929 24.1852 4.79025 23.9116 4.79025C23.638 4.79025 23.4142 4.56929 23.4142 4.29924Z" fill="#A4AFC1"/>
</g>
</svg>
