<svg width="32" height="33" viewBox="0 0 32 33" fill="none" xmlns="http://www.w3.org/2000/svg">
<g id="icn_categories suggestion_business">
<path id="Path" d="M6.23603 3.45156C12.9995 3.45156 17.6441 0.0635376 20.9031 0.0635376C24.1621 0.0635376 31.0067 1.87527 31.0067 16.3739C31.0067 30.8725 21.7988 33.0001 18.2141 33.0001C1.42817 33.001 -5.74206 3.45156 6.23603 3.45156Z" fill="#EFEFEF"/>
<g id="Group">
<path id="Path_2" d="M23.373 0.930442L24.0643 0.228488L25.4469 1.63239L24.7556 2.33435L23.373 0.930442Z" fill="#A4AFC1"/>
<path id="Path_3" d="M27.3486 4.96755L28.0399 4.2656L29.4225 5.6695L28.7312 6.37146L27.3486 4.96755Z" fill="#A4AFC1"/>
<path id="Path_4" d="M27.1757 1.63304L28.5583 0.229128L29.2496 0.931082L27.867 2.33499L27.1757 1.63304Z" fill="#A4AFC1"/>
</g>
<path id="Path_5" d="M24.69 24.8924H6.60063C5.52015 24.8924 4.64502 24.0037 4.64502 22.9066V11.4887C4.64502 10.3916 5.52015 9.50299 6.60063 9.50299H24.69C25.7705 9.50299 26.6456 10.3916 26.6456 11.4887V22.9066C26.6456 24.0037 25.7705 24.8924 24.69 24.8924Z" fill="#F3F3F1"/>
<path id="Path_6" d="M8.55615 18.9352V16.453C8.55615 15.9049 8.99421 15.4601 9.53396 15.4601H11.0007C11.5404 15.4601 11.9785 15.9049 11.9785 16.453V18.9352C11.9785 19.4832 11.5404 19.928 11.0007 19.928H9.53396C8.99421 19.928 8.55615 19.4832 8.55615 18.9352Z" fill="#FCBE4B"/>
<path id="Path_7" d="M19.311 18.9352V16.453C19.311 15.9049 19.7491 15.4601 20.2888 15.4601H21.7555C22.2953 15.4601 22.7333 15.9049 22.7333 16.453V18.9352C22.7333 19.4832 22.2953 19.928 21.7555 19.928H20.2888C19.7491 19.928 19.311 19.4832 19.311 18.9352Z" fill="#FCBE4B"/>
<path id="Path_8" d="M6.84508 22.9066V11.4887C6.84508 10.3916 7.72021 9.50299 8.80069 9.50299H6.60063C5.52015 9.50299 4.64502 10.3916 4.64502 11.4887V22.9066C4.64502 24.0037 5.52015 24.8924 6.60063 24.8924H8.80069C7.72021 24.8924 6.84508 24.0037 6.84508 22.9066Z" fill="#D5DBE1"/>
<path id="Path_9" d="M10.7562 18.9352V16.453C10.7562 16.037 11.0095 15.6825 11.3673 15.5356C11.2539 15.4889 11.1307 15.4601 11.0007 15.4601H9.53396C8.99421 15.4601 8.55615 15.9049 8.55615 16.453V18.9352C8.55615 19.4832 8.99421 19.928 9.53396 19.928H11.0007C11.1307 19.928 11.2539 19.8992 11.3673 19.8526C11.0095 19.7056 10.7562 19.3512 10.7562 18.9352Z" fill="#E1960A"/>
<path id="Path_10" d="M21.5111 18.9352V16.453C21.5111 16.037 21.7643 15.6825 22.1222 15.5356C22.0088 15.4889 21.8856 15.4601 21.7555 15.4601H20.2888C19.7491 15.4601 19.311 15.9049 19.311 16.453V18.9352C19.311 19.4832 19.7491 19.928 20.2888 19.928H21.7555C21.8856 19.928 22.0088 19.8992 22.1222 19.8526C21.7643 19.7056 21.5111 19.3512 21.5111 18.9352Z" fill="#E1960A"/>
<path id="Shape" fill-rule="evenodd" clip-rule="evenodd" d="M6.60009 25.637H24.6895C26.1728 25.637 27.3784 24.4128 27.3784 22.9066V11.4887C27.3784 9.9825 26.1728 8.7583 24.6895 8.7583H6.60009C5.11676 8.7583 3.91113 9.9825 3.91113 11.4887V22.9066C3.91113 24.4128 5.11676 25.637 6.60009 25.637ZM5.37792 11.4887C5.37792 10.8046 5.92647 10.2476 6.60017 10.2476H24.6895C25.3632 10.2476 25.9118 10.8046 25.9118 11.4887V22.9066C25.9118 23.5907 25.3632 24.1477 24.6895 24.1477H6.60017C5.92647 24.1477 5.37792 23.5907 5.37792 22.9066V11.4887Z" fill="#2B2B2B"/>
<path id="Path_11" d="M19.5558 9.50296H18.0891V7.51723C18.0891 7.38022 17.9796 7.26902 17.8447 7.26902H13.4446C13.3096 7.26902 13.2001 7.38022 13.2001 7.51723V9.50296H11.7334V7.51723C11.7334 6.55912 12.501 5.77972 13.4446 5.77972H17.8447C18.7883 5.77972 19.5558 6.55912 19.5558 7.51723V9.50296Z" fill="#2B2B2B"/>
<path id="Path_12" d="M9.5332 9.50299H10.9999V15.4602H9.5332V9.50299Z" fill="#2B2B2B"/>
<path id="Path_13" d="M9.5332 19.9279H10.9999V24.8922H9.5332V19.9279Z" fill="#2B2B2B"/>
<path id="Shape_2" fill-rule="evenodd" clip-rule="evenodd" d="M9.53342 20.6726H11.0001C11.9437 20.6726 12.7113 19.8932 12.7113 18.9351V16.453C12.7113 15.4949 11.9437 14.7155 11.0001 14.7155H9.53342C8.58984 14.7155 7.82227 15.4949 7.82227 16.453V18.9351C7.82227 19.8932 8.58984 20.6726 9.53342 20.6726ZM9.28913 16.4529C9.28913 16.3159 9.39865 16.2047 9.53359 16.2047H11.0003C11.1352 16.2047 11.2447 16.3159 11.2447 16.4529V18.9351C11.2447 19.0721 11.1352 19.1833 11.0003 19.1833H9.53359C9.39865 19.1833 9.28913 19.0721 9.28913 18.9351V16.4529Z" fill="#2B2B2B"/>
<path id="Path_14" d="M20.2896 9.50299H21.7563V15.4602H20.2896V9.50299Z" fill="#2B2B2B"/>
<path id="Path_15" d="M20.2896 19.9279H21.7563V24.8922H20.2896V19.9279Z" fill="#2B2B2B"/>
<path id="Shape_3" fill-rule="evenodd" clip-rule="evenodd" d="M20.2898 20.6726H21.7565C22.7001 20.6726 23.4676 19.8932 23.4676 18.9351V16.453C23.4676 15.4949 22.7001 14.7155 21.7565 14.7155H20.2898C19.3462 14.7155 18.5786 15.4949 18.5786 16.453V18.9351C18.5786 19.8932 19.3462 20.6726 20.2898 20.6726ZM20.0453 16.4529C20.0453 16.3159 20.1549 16.2047 20.2898 16.2047H21.7565C21.8914 16.2047 22.0009 16.3159 22.0009 16.4529V18.9351C22.0009 19.0721 21.8914 19.1833 21.7565 19.1833H20.2898C20.1549 19.1833 20.0453 19.0721 20.0453 18.9351V16.4529Z" fill="#2B2B2B"/>
<path id="Path_16" d="M0 24.1476H31.2897V25.6369H0V24.1476Z" fill="#2B2B2B"/>
</g>
</svg>
