<svg width="33" height="33" viewBox="0 0 33 33" fill="none" xmlns="http://www.w3.org/2000/svg">
<g id="icn_categories suggestion_music">
<path id="Path" d="M23.5858 3.21805C18.7244 -1.53273 9.28609 -0.3591 3.83669 2.47574C-3.95155 6.52725 1.55795 24.745 7.63458 29.9411C13.7112 35.1373 28.9028 32.9104 31.9411 29.1989C34.9794 25.4874 31.1816 20.2912 24.3453 16.5796C17.5091 12.8681 29.6624 9.15655 23.5858 3.21805Z" fill="#EFEFEF"/>
<path id="Path_2" d="M10.3957 17.5655C8.00362 17.5655 6.06445 19.5508 6.06445 21.9998C6.06445 24.4489 8.00362 26.4342 10.3957 26.4342C12.7878 26.4342 14.727 24.4489 14.727 21.9998C14.727 19.5508 12.7878 17.5655 10.3957 17.5655Z" fill="#FCBE4B"/>
<path id="Path_3" fill-rule="evenodd" clip-rule="evenodd" d="M6.06445 21.9998C6.06445 19.5508 8.00362 17.5655 10.3957 17.5655C10.9019 17.5655 11.3878 17.6544 11.8395 17.8178C10.1572 18.4266 8.95195 20.0691 8.95195 21.9998C8.95195 23.9306 10.1572 25.5731 11.8395 26.1818C11.3878 26.3452 10.9019 26.4342 10.3957 26.4342C8.00362 26.4342 6.06445 24.4489 6.06445 21.9998Z" fill="#E1960A"/>
<path id="Path_4" d="M21.9445 14.018C19.5524 14.018 17.6133 16.0033 17.6133 18.4523C17.6133 20.9014 19.5524 22.8867 21.9445 22.8867C24.3367 22.8867 26.2758 20.9014 26.2758 18.4523C26.2758 16.0033 24.3367 14.018 21.9445 14.018Z" fill="#FCBE4B"/>
<g id="Group">
<path id="Path_5" d="M17.6133 18.4523C17.6133 16.0033 19.5524 14.018 21.9445 14.018C22.4508 14.018 22.9367 14.1069 23.3883 14.2703C21.706 14.8791 20.5008 16.5216 20.5008 18.4523C20.5008 20.3831 21.706 22.0256 23.3883 22.6343C22.9367 22.7977 22.4508 22.8867 21.9445 22.8867C19.5524 22.8867 17.6133 20.9014 17.6133 18.4523Z" fill="#E1960A"/>
<path id="Path_6" d="M26.2273 9.88203C26.3854 10.3443 26.1473 10.8503 25.6958 11.012L14.1458 15.1507C13.6942 15.3126 13.2001 15.0689 13.042 14.6067C12.884 14.1443 13.1219 13.6384 13.5735 13.4766L25.1235 9.33785C25.575 9.17609 26.0693 9.41968 26.2273 9.88203Z" fill="#2EDF84"/>
<path id="Path_7" d="M25.9107 4.7216C26.1396 4.88791 26.2757 5.1575 26.2757 5.44492V18.4523C26.2757 18.9421 25.8878 19.3391 25.4094 19.3391C24.931 19.3391 24.5432 18.9421 24.5432 18.4523V6.69492L14.7257 10.2128V21.5558C14.7257 22.0456 14.3378 22.4427 13.8594 22.4427C13.381 22.4427 12.9932 22.0456 12.9932 21.5558V9.58362C12.9932 9.20676 13.2258 8.87105 13.5732 8.74653L25.1232 4.60784C25.3882 4.51289 25.6816 4.5553 25.9107 4.7216Z" fill="#2EDF84"/>
<path id="Shape" fill-rule="evenodd" clip-rule="evenodd" d="M10.3942 17.5655C8.00215 17.5655 6.06299 19.5508 6.06299 21.9998C6.06299 24.4489 8.00215 26.4342 10.3942 26.4342C12.7864 26.4342 14.7255 24.4489 14.7255 21.9998C14.7255 19.5508 12.7864 17.5655 10.3942 17.5655ZM7.79568 21.9998C7.79568 20.5304 8.95923 19.3392 10.3944 19.3392C11.8296 19.3392 12.9932 20.5304 12.9932 21.9998C12.9932 23.4692 11.8296 24.6604 10.3944 24.6604C8.95923 24.6604 7.79568 23.4692 7.79568 21.9998Z" fill="#2B2B2B"/>
<path id="Shape_2" fill-rule="evenodd" clip-rule="evenodd" d="M21.9445 14.018C19.5524 14.018 17.6133 16.0033 17.6133 18.4523C17.6133 20.9014 19.5524 22.8867 21.9445 22.8867C24.3367 22.8867 26.2758 20.9014 26.2758 18.4523C26.2758 16.0033 24.3367 14.018 21.9445 14.018ZM19.3457 18.4523C19.3457 16.983 20.5092 15.7917 21.9444 15.7917C23.3796 15.7917 24.5432 16.983 24.5432 18.4523C24.5432 19.9217 23.3796 21.1129 21.9444 21.1129C20.5092 21.1129 19.3457 19.9217 19.3457 18.4523Z" fill="#2B2B2B"/>
<path id="Path_8" d="M25.9107 4.7216C26.1396 4.88791 26.2757 5.1575 26.2757 5.44492V18.4523H24.5432V6.69492L14.7257 10.2128V21.5558H12.9932V9.58362C12.9932 9.20676 13.2258 8.87105 13.5732 8.74653L25.1232 4.60784C25.3882 4.51289 25.6816 4.5553 25.9107 4.7216Z" fill="#2B2B2B"/>
<path id="Path_9" d="M25.6955 11.012L14.1455 15.1507L13.5732 13.4765L25.1232 9.33783L25.6955 11.012Z" fill="#2B2B2B"/>
<path id="Path_10" d="M7.68896 6.07818L9.32239 4.40588L10.1391 5.24203L8.50569 6.91427L7.68896 6.07818Z" fill="#90A4AD"/>
<path id="Path_11" d="M3.60498 10.2589L5.23839 8.58655L6.0551 9.4228L4.42168 11.0951L3.60498 10.2589Z" fill="#90A4AD"/>
<path id="Path_12" d="M8.50568 8.58673L10.1391 10.259L9.32238 11.0951L7.68896 9.42287L8.50568 8.58673Z" fill="#90A4AD"/>
<path id="Path_13" d="M4.42169 4.40588L6.0551 6.07818L5.23839 6.91431L3.60498 5.24203L4.42169 4.40588Z" fill="#90A4AD"/>
</g>
</g>
</svg>
