<svg width="32" height="33" viewBox="0 0 32 33" fill="none" xmlns="http://www.w3.org/2000/svg">
<g id="icn_categories suggestion_code">
<path id="Path" d="M6.07341 29.6055C12.975 29.6055 17.7144 33 21.04 33C24.3656 33 31.35 31.1848 31.35 16.6587C31.35 2.13255 21.954 0 18.2961 0C1.16735 0 -6.14932 29.6055 6.07341 29.6055Z" fill="#F3F3F1"/>
<path id="Shape" fill-rule="evenodd" clip-rule="evenodd" d="M0.70752 4.26873C0.70752 5.09139 1.37902 5.76085 2.20418 5.76085C3.02934 5.76085 3.70084 5.09139 3.70084 4.26873C3.70084 3.44608 3.02934 2.77661 2.20418 2.77661C1.37902 2.77661 0.70752 3.44608 0.70752 4.26873ZM1.70526 4.26874C1.70526 3.99419 1.92876 3.77136 2.20415 3.77136C2.47953 3.77136 2.70303 3.99419 2.70303 4.26874C2.70303 4.54329 2.47953 4.76611 2.20415 4.76611C1.92876 4.76611 1.70526 4.54329 1.70526 4.26874Z" fill="#A4AFC1"/>
<path id="Path_2" d="M26.9001 20.4005V22.8874C26.9001 23.4345 26.4511 23.8821 25.9023 23.8821H5.44797C4.89919 23.8821 4.4502 23.4345 4.4502 22.8874V20.4005H26.9001Z" fill="#FCBE4B"/>
<path id="Path_3" d="M26.9001 9.45843V20.4006H4.4502V9.45843C4.4502 8.91132 4.89919 8.46368 5.44797 8.46368H25.9023C26.4511 8.46368 26.9001 8.91132 26.9001 9.45843Z" fill="#EFEFEF"/>
<path id="Path_4" d="M18.8977 26.8663H12.4321C13.6793 25.6229 13.9088 23.8821 13.9088 23.8821H17.421C17.421 23.8821 17.6605 25.6328 18.8977 26.8663Z" fill="#EFEFEF"/>
<path id="Path_5" d="M6.69519 22.8874V20.4005H4.4502V22.8874C4.4502 23.4345 4.89919 23.8821 5.44797 23.8821H7.69296C7.14418 23.8821 6.69519 23.4345 6.69519 22.8874Z" fill="#E1960A"/>
<path id="Path_6" d="M7.69296 8.46368H5.44797C4.89919 8.46368 4.4502 8.91132 4.4502 9.45843V20.4006H6.69519V9.45843C6.69519 8.91132 7.14418 8.46368 7.69296 8.46368Z" fill="#D5DBE1"/>
<path id="Path_7" d="M13.9088 23.8821C13.9088 23.8821 13.6793 25.6229 12.4321 26.8663H14.6771C15.9243 25.6229 16.1538 23.8821 16.1538 23.8821H13.9088Z" fill="#D5DBE1"/>
<path id="Shape_2" fill-rule="evenodd" clip-rule="evenodd" d="M5.44776 24.6282H25.9021C26.865 24.6282 27.6482 23.8473 27.6482 22.8874V9.45834C27.6482 8.49841 26.865 7.71753 25.9021 7.71753H5.44776C4.48491 7.71753 3.70166 8.49841 3.70166 9.45834V22.8874C3.70166 23.8473 4.48491 24.6282 5.44776 24.6282ZM5.19814 9.45833C5.19814 9.32106 5.3099 9.20965 5.44759 9.20965H25.9019C26.0396 9.20965 26.1514 9.32106 26.1514 9.45833V22.8874C26.1514 23.0247 26.0396 23.1361 25.9019 23.1361H5.44759C5.3099 23.1361 5.19814 23.0247 5.19814 22.8874V9.45833Z" fill="#2B2B2B"/>
<path id="Path_8" d="M26.8999 21.1467H4.44999C4.03691 21.1467 3.70166 20.8124 3.70166 20.4006C3.70166 19.9888 4.03691 19.6545 4.44999 19.6545H26.8999C27.313 19.6545 27.6482 19.9888 27.6482 20.4006C27.6482 20.8124 27.313 21.1467 26.8999 21.1467Z" fill="#2B2B2B"/>
<path id="Path_9" d="M18.9175 27.6125H12.432C12.1297 27.6125 11.8563 27.4305 11.7405 27.1519C11.6248 26.8734 11.6887 26.5521 11.9032 26.3392C12.9419 25.3037 13.1654 23.8006 13.1674 23.7857C13.2212 23.3769 13.5984 23.0904 14.0065 23.1431C14.4166 23.1968 14.7049 23.5718 14.651 23.9797C14.6431 24.0384 14.5044 25.0401 13.9087 26.1204H17.4239C16.8342 25.045 16.6875 24.0433 16.6795 23.9846C16.6226 23.5768 16.908 23.1998 17.3181 23.1431C17.7302 23.0874 18.1043 23.3709 18.1622 23.7777C18.1692 23.8225 18.3937 25.239 19.3436 26.2527C19.5381 26.388 19.6659 26.6118 19.6659 26.8664C19.6659 27.2783 19.3306 27.6125 18.9175 27.6125Z" fill="#2B2B2B"/>
<path id="Path_10" d="M18.9175 17.1677C18.7449 17.1677 18.5723 17.109 18.4306 16.9876C18.1173 16.719 18.0804 16.2485 18.3498 15.9352L19.4284 14.6808L18.3488 13.4254C18.0794 13.1131 18.1163 12.6416 18.4296 12.373C18.7439 12.1044 19.2168 12.1422 19.4852 12.4536L20.9819 14.1944C21.2224 14.4739 21.2224 14.8857 20.9819 15.1662L19.4852 16.907C19.3376 17.0791 19.128 17.1677 18.9175 17.1677Z" fill="#2B2B2B"/>
<path id="Path_11" d="M12.4323 17.1676C12.2217 17.1676 12.0122 17.0791 11.8635 16.907L10.3669 15.1662C10.1264 14.8867 10.1264 14.4749 10.3669 14.1943L11.8635 12.4535C12.1329 12.1402 12.6039 12.1034 12.9192 12.373C13.2325 12.6415 13.2694 13.1121 13 13.4254L11.9214 14.6808L13.001 15.9361C13.2704 16.2485 13.2335 16.72 12.9202 16.9886C12.7785 17.108 12.6049 17.1676 12.4323 17.1676Z" fill="#2B2B2B"/>
<path id="Path_12" d="M14.9261 18.6598C14.8702 18.6598 14.8143 18.6538 14.7575 18.6409C14.3544 18.5484 14.1039 18.1475 14.1957 17.7466L15.6924 11.2808C15.7852 10.8789 16.1883 10.6332 16.5894 10.7207C16.9925 10.8132 17.2429 11.2141 17.1511 11.615L15.6545 18.0809C15.5756 18.427 15.2673 18.6598 14.9261 18.6598Z" fill="#2B2B2B"/>
</g>
</svg>
