<?xml version="1.0" encoding="UTF-8"?>
<svg width="18px" height="18px" viewBox="0 0 18 18" version="1.1" xmlns="http://www.w3.org/2000/svg" xmlns:xlink="http://www.w3.org/1999/xlink">
    <title>C891023A-BB41-4400-B943-F8DCC21FEC24@1.5x</title>
    <defs>
        <path d="M6.77440625,0 C8.5839375,0 10.2850938,0.70465625 11.564625,1.9841875 C12.844125,3.2636875 13.5488125,4.964875 13.5488125,6.774375 C13.5488125,8.36674509 13.0031144,9.87521562 12.0002216,11.0862586 L15.8107188,14.8966562 C16.0630938,15.1490625 16.0630938,15.5582812 15.8107188,15.8106875 C15.6845313,15.9369062 15.5190938,16 15.3536875,16 C15.1882813,16 15.0228438,15.9369062 14.8966563,15.8106875 L14.8966563,15.8106875 L11.0862799,12.0001903 C9.87521607,13.0030832 8.36674884,13.5487812 6.77440625,13.5487812 C4.96490625,13.5487812 3.2636875,12.8440937 1.9841875,11.5645937 C0.70465625,10.2850937 0,8.58390625 0,6.774375 C0,4.964875 0.70465625,3.2636875 1.9841875,1.9841875 C3.2636875,0.70465625 4.964875,0 6.77440625,0 Z M6.77440625,1.292625 C3.75175,1.292625 1.292625,3.75171875 1.292625,6.774375 C1.292625,9.79703125 3.75171875,12.256125 6.774375,12.256125 C9.79703125,12.256125 12.256125,9.79703125 12.256125,6.774375 C12.256125,3.75171875 9.7970625,1.292625 6.77440625,1.292625 Z" id="path-1"></path>
    </defs>
    <g id="Design" stroke="none" stroke-width="1" fill="none" fill-rule="evenodd">
        <g id="07_VirtualLearn_Home_new-user" transform="translate(-333.000000, -71.000000)">
            <g id="icn_search" transform="translate(334.000000, 72.000000)">
                <mask id="mask-2" fill="white">
                    <use xlink:href="#path-1"></use>
                </mask>
                <use id="Combined-Shape" stroke="#373737" stroke-width="0.5" fill="#373737" fill-rule="nonzero" xlink:href="#path-1"></use>
            </g>
        </g>
    </g>
</svg>