<svg width="32" height="33" viewBox="0 0 32 33" fill="none" xmlns="http://www.w3.org/2000/svg">
<g id="icn_categories suggestion_lifestyle">
<path id="Path" d="M28.1253 6.39306C28.1253 13.6579 31.35 18.6468 31.35 22.1474C31.35 25.648 29.6256 33 15.8258 33C2.02592 33 0 23.1094 0 19.2591C0 1.22879 28.1253 -6.47297 28.1253 6.39306Z" fill="#EFEFEF"/>
<g id="Group">
<path id="Path_2" d="M24.7665 2.26664L25.3861 1.64999L26.6252 2.88328L26.0056 3.49993L24.7665 2.26664Z" fill="#A4AFC1"/>
<path id="Path_3" d="M28.329 5.81302L28.9486 5.19637L30.1877 6.42967L29.5681 7.04632L28.329 5.81302Z" fill="#A4AFC1"/>
<path id="Path_4" d="M28.1737 2.88376L29.4129 1.65046L30.0324 2.26711L28.7933 3.5004L28.1737 2.88376Z" fill="#A4AFC1"/>
</g>
<path id="Path_5" d="M18.498 8.48859H22.4415C22.8621 8.48859 23.2214 8.78514 23.3003 9.18635L25.9293 21.8333C25.938 21.8944 25.9468 21.9467 25.9468 22.0078C25.9468 22.4875 25.5525 22.88 25.0705 22.88H21.127L18.498 8.48859Z" fill="#FCBE4B"/>
<path id="Path_6" d="M22.442 22.0078C22.442 22.4875 22.0476 22.88 21.5657 22.88H7.1063C6.62433 22.88 6.22998 22.4875 6.22998 22.0078C6.22998 21.9467 6.23874 21.8944 6.24751 21.8333L8.87648 9.18635C8.95535 8.78514 9.31464 8.48859 9.73528 8.48859H18.9367C19.3573 8.48859 19.7166 8.78514 19.7955 9.18635L22.4245 21.8333C22.4332 21.8944 22.442 21.9467 22.442 22.0078Z" fill="#F3F3F1"/>
<path id="Path_7" d="M8.20171 22.0078C8.20171 21.9467 8.21047 21.8944 8.21924 21.8333L10.8482 9.18635C10.9271 8.78514 11.2864 8.48859 11.707 8.48859H9.73528C9.31464 8.48859 8.95535 8.78514 8.87648 9.18635L6.24751 21.8333C6.23874 21.8944 6.22998 21.9467 6.22998 22.0078C6.22998 22.4875 6.62433 22.88 7.1063 22.88H9.07803C8.59606 22.88 8.20171 22.4875 8.20171 22.0078Z" fill="#D5DBE1"/>
<path id="Path_8" d="M19.812 8.48859L22.441 22.88H24.1936L21.5647 8.48859H19.812Z" fill="#E1960A"/>
<path id="Shape" fill-rule="evenodd" clip-rule="evenodd" d="M7.10583 23.534H21.5652C22.4108 23.534 23.0987 22.8493 23.0987 22.0077C23.0987 21.9187 23.0891 21.8411 23.0672 21.7007L20.44 9.06067C20.3006 8.34982 19.6679 7.83435 18.9362 7.83435H9.73481C9.00307 7.83435 8.37037 8.34982 8.23191 9.05369L5.59417 21.753C5.58191 21.8411 5.57227 21.9187 5.57227 22.0077C5.57227 22.8493 6.26018 23.534 7.10583 23.534ZM9.52122 9.31098C9.5405 9.21504 9.63164 9.14265 9.73504 9.14265V9.14177H18.9364C19.0399 9.14177 19.1319 9.21417 19.152 9.31796L21.7766 21.9431C21.7775 21.9512 21.7788 21.9588 21.78 21.9662C21.7823 21.9798 21.7845 21.993 21.7845 22.0077C21.7845 22.1263 21.6846 22.2257 21.5654 22.2257H7.10607C6.98689 22.2257 6.88699 22.1263 6.89049 21.9658L9.52122 9.31098Z" fill="#2B2B2B"/>
<path id="Path_9" d="M25.0705 23.534H21.127V22.2257H25.0705C25.1897 22.2257 25.2896 22.1263 25.2896 22.0077L22.6571 9.31884C22.6369 9.21505 22.5449 9.14266 22.4415 9.14266H18.498V7.83435H22.4415C23.1732 7.83435 23.8059 8.34982 23.9453 9.06067L26.5725 21.7007C26.5944 21.8411 26.604 21.9187 26.604 22.0077C26.604 22.8493 25.9161 23.534 25.0705 23.534Z" fill="#2B2B2B"/>
<path id="Path_10" d="M14.3349 15.6843C12.4017 15.6843 10.8296 14.1196 10.8296 12.1955V10.233H12.1441V12.1955C12.1441 13.3974 13.1273 14.376 14.3349 14.376C15.5425 14.376 16.5257 13.3974 16.5257 12.1955V10.233H17.8402V12.1955C17.8402 14.1196 16.2681 15.6843 14.3349 15.6843Z" fill="#2B2B2B"/>
</g>
</svg>
