<svg width="29" height="30" viewBox="0 0 29 30" fill="none" xmlns="http://www.w3.org/2000/svg">
<g id="icn_categories suggestion_teaching">
<path id="Path" d="M2.93166 5.81187C2.93166 12.4163 0 16.9516 0 20.134C0 23.3163 1.5677 30 14.1134 30C26.659 30 28.5 21.0086 28.5 17.5083C28.5008 1.11708 2.93166 -5.88451 2.93166 5.81187Z" fill="#EFEFEF"/>
<path id="Path_2" d="M20.3057 5.00684L20.8841 4.43304L22.0411 5.58063L21.4626 6.15442L20.3057 5.00684Z" fill="#A4AFC1"/>
<path id="Path_3" d="M23.6309 8.30676L24.2093 7.73297L25.3663 8.88055L24.7878 9.45435L23.6309 8.30676Z" fill="#A4AFC1"/>
<path id="Path_4" d="M23.4888 5.58508L24.6457 4.4375L25.2242 5.01129L24.0672 6.15887L23.4888 5.58508Z" fill="#A4AFC1"/>
<path id="Path_5" d="M17.0002 19.4255L17.9313 12.221H10.5674L11.4985 19.4255C11.5509 19.8304 11.8986 20.134 12.3102 20.134H16.1885C16.6001 20.134 16.9478 19.8304 17.0002 19.4255Z" fill="#FCBE4B"/>
<g id="Group">
<ellipse id="Oval" cx="14.2503" cy="6.13411" rx="1.02277" ry="1.01448" fill="#F3F3F1"/>
<path id="Path_6" d="M11.5913 10.395C11.5913 9.723 12.1411 9.17761 12.8186 9.17761H15.6824C16.3599 9.17761 16.9097 9.723 16.9097 10.395V12.424H11.5913V10.395Z" fill="#F3F3F1"/>
<path id="Path_7" d="M16.0921 23.3803C16.0921 22.7083 15.5423 22.1629 14.8648 22.1629H13.6375C12.96 22.1629 12.4102 22.7083 12.4102 23.3803V23.989H16.0921V23.3803Z" fill="#F3F3F1"/>
<path id="Path_8" d="M22.637 23.3803C22.637 22.7083 22.0872 22.1629 21.4097 22.1629H20.1824C19.5049 22.1629 18.9551 22.7083 18.9551 23.3803V23.989H22.637V23.3803Z" fill="#F3F3F1"/>
<path id="Path_9" d="M9.54573 23.3803C9.54573 22.7083 8.99589 22.1629 8.31841 22.1629H7.09109C6.41361 22.1629 5.86377 22.7083 5.86377 23.3803V23.989H9.54573V23.3803Z" fill="#F3F3F1"/>
</g>
<path id="Path_10" d="M13.3395 19.4255L12.4084 12.221H10.5674L11.4985 19.4255C11.5509 19.8304 11.8986 20.134 12.3102 20.134H14.1512C13.7396 20.134 13.3919 19.8304 13.3395 19.4255Z" fill="#E1960A"/>
<path id="Path_11" d="M15.0685 6.13411C15.0685 5.97991 15.1086 5.83788 15.1708 5.70722C15.0072 5.36229 14.6594 5.11963 14.2503 5.11963C13.6857 5.11963 13.2275 5.57412 13.2275 6.13411C13.2275 6.69411 13.6857 7.14859 14.2503 7.14859C14.6594 7.14859 15.0072 6.90593 15.1708 6.56101C15.1086 6.43034 15.0685 6.28831 15.0685 6.13411Z" fill="#D5DBE1"/>
<path id="Path_12" d="M14.6596 9.17761H12.8186C12.1411 9.17761 11.5913 9.723 11.5913 10.395V12.424H13.4323V10.395C13.4323 9.723 13.9821 9.17761 14.6596 9.17761Z" fill="#D5DBE1"/>
<path id="Path_13" d="M15.1702 22.2059C15.0712 22.1808 14.9697 22.1629 14.8633 22.1629H13.636C12.9585 22.1629 12.4087 22.7083 12.4087 23.3803V23.989H14.2497V23.3803C14.2497 22.8138 14.6416 22.3415 15.1702 22.2059Z" fill="#D5DBE1"/>
<path id="Path_14" d="M21.7165 22.2059C21.6175 22.1808 21.5161 22.1629 21.4097 22.1629H20.1824C19.5049 22.1629 18.9551 22.7083 18.9551 23.3803V23.989H20.7961V23.3803C20.7961 22.8138 21.188 22.3415 21.7165 22.2059Z" fill="#D5DBE1"/>
<path id="Path_15" d="M8.62524 22.2059C8.52624 22.1808 8.42478 22.1629 8.31841 22.1629H7.09109C6.41361 22.1629 5.86377 22.7083 5.86377 23.3803V23.989H7.70475V23.3803C7.70475 22.8138 8.09667 22.3415 8.62524 22.2059Z" fill="#D5DBE1"/>
<path id="Path_16" d="M8.52246 11.8152H19.9774V13.0326H8.52246V11.8152Z" fill="#2B2B2B"/>
<path id="Shape" fill-rule="evenodd" clip-rule="evenodd" d="M12.6138 6.13416C12.6138 7.02934 13.3477 7.75733 14.2502 7.75733C15.1527 7.75733 15.8866 7.02934 15.8866 6.13416C15.8866 5.23898 15.1527 4.51099 14.2502 4.51099C13.3477 4.51099 12.6138 5.23898 12.6138 6.13416ZM13.8411 6.13416C13.8411 5.91016 14.0252 5.72837 14.2502 5.72837C14.4752 5.72837 14.6593 5.91016 14.6593 6.13416C14.6593 6.35816 14.4752 6.53995 14.2502 6.53995C14.0252 6.53995 13.8411 6.35816 13.8411 6.13416Z" fill="#2B2B2B"/>
<path id="Path_17" d="M17.5232 11.0037H16.2959V10.395C16.2959 10.059 16.0202 9.78635 15.6823 9.78635H12.8185C12.4806 9.78635 12.2049 10.059 12.2049 10.395V11.0037H10.9775V10.395C10.9775 9.38786 11.8039 8.56897 12.8185 8.56897H15.6823C16.6968 8.56897 17.5232 9.38786 17.5232 10.395V11.0037Z" fill="#2B2B2B"/>
<ellipse id="Oval_2" cx="20.7962" cy="19.5254" rx="1.22732" ry="1.21738" fill="#2B2B2B"/>
<path id="Path_18" d="M23.2506 23.989H22.0233V23.3803C22.0233 23.0443 21.7475 22.7716 21.4096 22.7716H20.1823C19.8444 22.7716 19.5686 23.0443 19.5686 23.3803V23.989H18.3413V23.3803C18.3413 22.3732 19.1677 21.5543 20.1823 21.5543H21.4096C22.4242 21.5543 23.2506 22.3732 23.2506 23.3803V23.989Z" fill="#2B2B2B"/>
<ellipse id="Oval_3" cx="14.2498" cy="19.5254" rx="1.22732" ry="1.21738" fill="#2B2B2B"/>
<path id="Path_19" d="M16.7042 23.989H15.4769V23.3803C15.4769 23.0443 15.2011 22.7716 14.8632 22.7716H13.6359C13.298 22.7716 13.0222 23.0443 13.0222 23.3803V23.989H11.7949V23.3803C11.7949 22.3732 12.6213 21.5543 13.6359 21.5543H14.8632C15.8778 21.5543 16.7042 22.3732 16.7042 23.3803V23.989Z" fill="#2B2B2B"/>
<ellipse id="Oval_4" cx="7.70486" cy="19.5254" rx="1.22732" ry="1.21738" fill="#2B2B2B"/>
<path id="Path_20" d="M10.1593 23.989H8.93196V23.3803C8.93196 23.0443 8.65622 22.7716 8.3183 22.7716H7.09098C6.75306 22.7716 6.47732 23.0443 6.47732 23.3803V23.989H5.25V23.3803C5.25 22.3732 6.0764 21.5543 7.09098 21.5543H8.3183C9.33288 21.5543 10.1593 22.3732 10.1593 23.3803V23.989Z" fill="#2B2B2B"/>
<path id="Path_21" d="M16.6318 17.4099L17.4223 11.9438L18.6373 12.1167L17.8469 17.5827L16.6318 17.4099Z" fill="#2B2B2B"/>
<path id="Path_22" d="M9.87012 12.1148L11.0852 11.9432L11.87 17.4092L10.655 17.5808L9.87012 12.1148Z" fill="#2B2B2B"/>
</g>
</svg>
