<?xml version="1.0" encoding="UTF-8"?>
<svg width="201px" height="228px" viewBox="0 0 201 228" version="1.1" xmlns="http://www.w3.org/2000/svg" xmlns:xlink="http://www.w3.org/1999/xlink">
    <title>5FB96773-7E77-4945-882C-A79B439D5173@1.5x</title>
    <g id="Design" stroke="none" stroke-width="1" fill="none" fill-rule="evenodd">
        <g id="13.2_VirtualLearn_Search_No-Result" transform="translate(-87.000000, -232.000000)">
            <g id="img_search-no-result" transform="translate(87.000000, 232.000000)">
                <g id="Layer_2" transform="translate(12.454715, 0.000000)" fill-rule="nonzero">
                    <g id="vector">
                        <path d="M135.358624,23.19263 C146.333712,33.1005632 153.520601,46.925117 165.05592,66.7957513 C176.643604,86.6663856 192.62204,112.580218 186.562788,128.029791 C180.503535,143.479364 152.29756,148.458913 125.666115,158.590241 C99.0346704,168.721569 73.9612578,183.945586 50.8956406,180.977313 C27.8300233,178.009041 6.77076691,156.854966 1.47546645,133.458292 C-3.87435079,110.004688 6.48885779,84.3113688 13.9569387,60.9168569 C21.3633295,37.5230656 25.8767447,16.4086251 38.8567585,6.85380025 C51.8367723,-2.70102458 73.288406,-0.650113389 91.4546867,3.32271633 C109.616663,7.34382822 124.380667,13.2868586 135.358624,23.19263 Z" id="Path_75" fill="#F2F2F2"></path>
                        <rect id="Rectangle_43" fill="#DE8E68" transform="translate(126.365149, 188.330255) rotate(180.000000) translate(-126.365149, -188.330255) " x="124.290284" y="186.565794" width="4.14973085" height="3.52892203"></rect>
                        <polygon id="Path_79" fill="#000000" points="128.83024 189.542714 128.83024 193.073798 118.957682 193.073798 118.957682 191.789636 124.093019 189.544876"></polygon>
                        <rect id="Rectangle_44" fill="#DE8E68" transform="translate(61.864631, 145.037725) rotate(180.000000) translate(-61.864631, -145.037725) " x="59.7897655" y="143.273264" width="4.14973085" height="3.52892203"></rect>
                        <polygon id="Path_80" fill="#000000" points="64.330439 146.250904 64.330439 149.781988 54.4600334 149.781988 54.4600334 148.499989 59.5953702 146.252346"></polygon>
                        <path d="M124.143232,99.0525632 C124.352691,101.057354 128.761377,187.496847 128.761377,187.496847 L124.143232,187.496847 L101.690929,106.107525 L124.143232,99.0525632 Z" id="Path_81" fill="#311547"></path>
                        <path d="M126.517581,89.5294461 C126.517581,101.268498 122.221516,111.830763 113.524655,111.830763 C101.585482,111.830763 85.7806381,104.184165 81.4307733,99.8683156 C80.3454591,103.093132 64.9473394,143.716451 64.9473394,143.716451 L58.5703113,143.716451 C58.5703113,143.716451 62.6590695,96.4172216 70.3165244,84.2861468 C72.8364906,80.9143219 93.4015094,81.7567377 103.791259,84.2861468 C114.181009,86.8155558 126.517581,89.5294461 126.517581,89.5294461 Z" id="Path_82" fill="#4F216C"></path>
                        <path d="M95.6797368,21.1330712 C95.8294408,20.3824187 96.5156444,19.8638461 97.2750698,19.9274583 C98.2075936,19.9937562 99.7362153,22.4734419 99.7362153,24.4811153 C99.7362153,26.4887887 99.172397,27.2432877 99.3431206,28.7011209 C99.5138442,30.1589541 103.209508,49.9315828 103.209508,51.1371957 C104.637973,51.0815994 106.062329,50.9473609 107.476163,50.7350845 L105.141267,60.1803737 L98.3446028,60.1803737 L93.9552851,22.1369079 L95.6797368,21.1330712 Z" id="Path_83" fill="#D37C59"></path>
                        <path d="M102.198078,24.5027342 L100.763426,30.3160513 C100.763426,30.3160513 86.636408,28.6665307 85.0948745,28.2845971 C83.5533409,27.9026635 85.8796291,18.2865852 87.4577463,18.6793282 C89.0358635,19.0720712 102.198078,24.5027342 102.198078,24.5027342 Z" id="Path_84" fill="#000000"></path>
                        <path d="M115.142226,41.6962303 C133.213819,41.6962303 128.757073,88.6005548 126.6467,90.3552873 C124.536327,92.1100198 102.068959,86.1893289 100.202477,83.5763268 C98.3359949,80.9633247 101.888911,41.6962303 115.142226,41.6962303 Z" id="Path_85" fill="#E8315D"></path>
                        <path d="M108.69203,53.60391 C107.699251,53.9418852 101.877433,56.2233978 101.877433,56.2233978 C101.779877,55.0473307 97.3037628,31.7162342 97.0275923,30.2872261 C97.5923696,28.8612169 97.8717159,27.3373272 97.8496479,25.8027495 C97.8496479,21.9726044 96.3002238,18.8623681 94.390702,18.8623681 C92.4811802,18.8623681 90.93606,21.9726044 90.93606,25.8027495 C90.9088805,27.4060099 91.2162792,28.9972136 91.8384561,30.4738691 C91.6232583,33.3902562 89.6965207,61.0811604 93.6317711,65.0287681 C97.7786326,69.1947265 107.861367,65.4380856 113.989483,62.6391611 C115.295733,62.1837233 113.508157,52.2952471 108.69203,53.60391 Z" id="Path_86" fill="#DE8E68"></path>
                        <polygon id="Rectangle_45" fill="#000000" transform="translate(102.201853, 27.697323) rotate(14.883465) translate(-102.201853, -27.697323) " points="100.30818 26.3677684 104.092505 26.3720932 104.095527 29.0268778 100.311202 29.022553"></polygon>
                        <path d="M126.658894,50.3127957 C129.412709,55.6850877 118.506484,65.3624195 115.488694,64.6425107 C112.470904,63.922602 107.604564,53.1045139 108.514133,51.1667415 C109.423703,49.2289691 123.980399,45.0853502 126.658894,50.3127957 Z" id="Path_87" fill="#C81A44"></path>
                        <path d="M116.249777,46.2419604 C116.249777,47.1513947 110.726367,47.3812754 110.726367,46.2419604 L110.726367,35.7726569 L116.249777,35.7726569 L116.249777,46.2419604 Z" id="Path_88" fill="#D37C59"></path>
                        <ellipse id="Ellipse_10" fill="#DC8E6C" cx="111.49534" cy="30.1438209" rx="7.2062569" ry="11.7073448"></ellipse>
                        <path d="M106.096027,22.3869663 C105.984458,24.0988606 106.800485,25.7381552 108.23079,26.6754317 C110.382768,28.1455156 111.912107,27.4962286 113.488072,28.8812782 C114.32017,29.7172083 116.357376,31.3314181 116.376744,33.8269576 C116.376744,35.6724894 116.979297,36.6035426 117.508684,36.6035426 C118.038071,36.6035426 119.43327,36.2360216 120.331362,36.2360216 C129.148016,36.2360216 139.501182,45.379367 159.363221,45.379367 C169.738624,45.379367 186.019772,42.7497905 186.019772,27.442902 C186.019772,19.1765625 183.057933,9.18719815 167.403728,9.18719815 C157.463024,9.18719815 150.497789,14.0874779 142.331033,14.0874779 C131.841575,14.0874779 127.796573,10.2681422 120.548712,10.2681422 C115.383964,10.2681422 103.769739,13.2724461 103.769739,21.1446013 C103.769739,24.1344926 104.702263,25.0021303 104.989193,25.156345 C105.27641,24.2023359 105.646788,23.2756222 106.096027,22.3869663 L106.096027,22.3869663 Z" id="Path_89" fill="#000000"></path>
                        <ellipse id="Ellipse_11" fill="#DC8E6C" cx="115.635029" cy="32.9146408" rx="1.83922384" ry="1.84769371"></ellipse>
                    </g>
                </g>
                <text id="NO" font-family="Biko-Bold, Biko" font-size="59.04" font-weight="bold" fill="#042C5C">
                    <tspan x="6.46702572" y="191.509353">NO</tspan>
                </text>
                <text id="Result-Found" font-family="Biko-Bold, Biko" font-size="28" font-weight="bold" fill="#042C5C">
                    <tspan x="10.3137488" y="220.983392">Result Found</tspan>
                </text>
            </g>
        </g>
    </g>
</svg>