<svg width="49" height="49" viewBox="0 0 49 49" fill="none" xmlns="http://www.w3.org/2000/svg">
<path d="M24.5 48C37.4787 48 48 37.4787 48 24.5C48 11.5213 37.4787 1 24.5 1C11.5213 1 1 11.5213 1 24.5C1 37.4787 11.5213 48 24.5 48Z" fill="#FCBE4B" fill-opacity="0.1" stroke="#FCBE4B"/>
<mask id="mask0_309_12306" style="mask-type:alpha" maskUnits="userSpaceOnUse" x="18" y="15" width="16" height="18">
<path d="M21.828 32.2075C21.8311 32.2057 21.8343 32.2038 21.8374 32.2019L32.3854 25.8682C32.3865 25.8676 32.3876 25.8669 32.3887 25.8663C32.8858 25.564 33.2358 25.0857 33.3741 24.5195C33.5125 23.9533 33.4225 23.3671 33.1209 22.8687C32.94 22.5697 32.6868 22.3159 32.3886 22.1346C32.3876 22.134 32.3865 22.1333 32.3854 22.1327L21.8375 15.799C21.8343 15.7971 21.8312 15.7952 21.828 15.7934C21.3244 15.5019 20.7378 15.4244 20.1761 15.5753C19.6144 15.7261 19.145 16.0871 18.8542 16.5919C18.6675 16.916 18.5667 17.2851 18.5625 17.6592C18.5625 17.6617 18.5625 17.6642 18.5625 17.6668L18.5625 30.3342C18.5625 30.3367 18.5625 30.3392 18.5625 30.3417C18.5757 31.5449 19.563 32.513 20.7633 32.5C21.1366 32.4957 21.5047 32.3946 21.828 32.2075Z" fill="white"/>
</mask>
<g mask="url(#mask0_309_12306)">
<path d="M21.828 32.2075C21.8311 32.2057 21.8343 32.2038 21.8374 32.2019L32.3854 25.8682C32.3865 25.8676 32.3876 25.8669 32.3887 25.8663C32.8858 25.564 33.2358 25.0857 33.3741 24.5195C33.5125 23.9533 33.4225 23.3671 33.1209 22.8687C32.94 22.5697 32.6868 22.3159 32.3886 22.1346C32.3876 22.134 32.3865 22.1333 32.3854 22.1327L21.8375 15.799C21.8343 15.7971 21.8312 15.7952 21.828 15.7934C21.3244 15.5019 20.7378 15.4244 20.1761 15.5753C19.6144 15.7261 19.145 16.0871 18.8542 16.5919C18.6675 16.916 18.5667 17.2851 18.5625 17.6592C18.5625 17.6617 18.5625 17.6642 18.5625 17.6668V30.3342C18.5625 30.3367 18.5625 30.3392 18.5625 30.3417C18.5757 31.5449 19.563 32.513 20.7633 32.5C21.1366 32.4957 21.5047 32.3946 21.828 32.2075Z" fill="#FCBE4B"/>
</g>
</svg>
